<svg  viewBox="0 0 16 17" fill="none" xmlns="http://www.w3.org/2000/svg">
<path d="M5.26562 13.8882H8.98516C11.1719 13.8882 12.5641 12.7351 12.5641 10.9703C12.5641 9.58511 11.5305 8.57964 10.0891 8.50933V8.44604C11.2773 8.29136 12.1 7.39839 12.1 6.25933C12.1 4.67026 10.8766 3.69995 8.87266 3.69995H5.26562C4.47109 3.69995 4 4.16401 4 4.97261V12.6156C4 13.4242 4.47109 13.8882 5.26562 13.8882ZM6.55234 7.90464V5.4437H8.06406C9.02031 5.4437 9.58984 5.88667 9.58984 6.63901C9.58984 7.42651 8.96406 7.90464 7.90937 7.90464H6.55234ZM6.55234 12.1656V9.42339H8.11328C9.30156 9.42339 9.96953 9.90151 9.96953 10.7804C9.96953 11.6804 9.35781 12.1656 8.18359 12.1656H6.55234Z" fill="#1C1C1E"/>
</svg>
