<svg  viewBox="0 0 17 17" fill="none" xmlns="http://www.w3.org/2000/svg">
<path d="M11.9496 8.37715L8.15607 12.2071C7.19614 13.1815 5.90254 13.0882 5.07608 12.2486C4.23934 11.409 4.14694 10.1133 5.11714 9.13382L10.3018 3.89934C10.8665 3.32925 11.7083 3.23078 12.2576 3.78532C12.8069 4.34505 12.7042 5.18982 12.1395 5.75473L7.05241 10.9011C6.82654 11.1343 6.55961 11.0669 6.39534 10.9115C6.24647 10.7508 6.18487 10.4813 6.41074 10.2481L9.95787 6.66687C10.1375 6.4803 10.1478 6.2108 9.97327 6.03459C9.79874 5.86875 9.5318 5.87393 9.35214 6.05532L5.78961 9.65208C5.23521 10.2118 5.25574 11.0669 5.74854 11.5645C6.28241 12.1035 7.08834 12.0879 7.64274 11.5282L12.7555 6.3611C13.7514 5.36085 13.7155 4.03927 12.8428 3.15822C11.9855 2.2979 10.656 2.23571 9.66014 3.24114L4.44468 8.5119C3.14594 9.82829 3.23321 11.7148 4.41901 12.912C5.59967 14.0988 7.47334 14.1921 8.77207 12.8809L12.5913 9.03016C12.7658 8.85395 12.7658 8.53263 12.5861 8.36678C12.4167 8.18021 12.1293 8.20612 11.9496 8.37715Z" fill="#ABBED1"/>
</svg>
