<svg  viewBox="0 0 12 12" fill="none" xmlns="http://www.w3.org/2000/svg">
<path d="M0.211825 0.210883C-0.0706082 0.492061 -0.0706082 0.947939 0.211825 1.22912L5.00401 6L0.211825 10.7709C-0.0706082 11.0521 -0.0706082 11.5079 0.211825 11.7891C0.494257 12.0703 0.952171 12.0703 1.2346 11.7891L6 7.0449L10.7654 11.7891C11.0478 12.0703 11.5057 12.0703 11.7882 11.7891C12.0706 11.5079 12.0706 11.0521 11.7882 10.7709L6.99599 6L11.7882 1.22912C12.0706 0.947939 12.0706 0.492061 11.7882 0.210883C11.5057 -0.0702944 11.0478 -0.0702944 10.7654 0.210883L6 4.9551L1.2346 0.210883C0.952171 -0.0702944 0.494257 -0.0702944 0.211825 0.210883Z" fill="inherit"/>
</svg>
