<svg width="32" height="33" viewBox="0 0 32 33"  xmlns="http://www.w3.org/2000/svg">
<rect y="0.389648" width="32" height="32" rx="4" fill="#F4F6F8"/>
<path d="M22.6874 25.1241H13.407C12.2781 25.1241 11.3599 24.2059 11.3599 23.077V13.7967C11.3599 12.6677 12.2781 11.7495 13.407 11.7495H22.6874C23.8163 11.7495 24.7345 12.6677 24.7345 13.7967V23.077C24.7345 24.2059 23.8163 25.1241 22.6874 25.1241ZM13.407 13.1143C13.0308 13.1143 12.7246 13.4204 12.7246 13.7967V23.077C12.7246 23.4533 13.0308 23.7594 13.407 23.7594H22.6874C23.0636 23.7594 23.3697 23.4533 23.3697 23.077V13.7967C23.3697 13.4204 23.0636 13.1143 22.6874 13.1143H13.407ZM9.99514 19.6651H9.31276C8.9365 19.6651 8.63038 19.359 8.63038 18.9827V9.70241C8.63038 9.32614 8.9365 9.02003 9.31276 9.02003H18.5931C18.9694 9.02003 19.2755 9.32614 19.2755 9.70241V10.3507H20.6402V9.70241C20.6402 8.57348 19.722 7.65527 18.5931 7.65527H9.31276C8.18383 7.65527 7.26562 8.57348 7.26562 9.70241V18.9827C7.26562 20.1117 8.18383 21.0299 9.31276 21.0299H9.99514V19.6651Z" fill="inherit"/>
</svg>
