<svg width="32" height="32" viewBox="0 0 32 32" fill="none" xmlns="http://www.w3.org/2000/svg">
<rect width="32" height="32" rx="4" fill="#F4F6F8"/>
<path d="M15.3635 18.7274L16.4576 17.619C15.6138 17.5475 15.0059 17.2686 14.5697 16.8324C13.3612 15.6239 13.3612 13.9148 14.5626 12.7205L16.9367 10.3393C18.1452 9.1379 19.8472 9.13075 21.0557 10.3393C22.2713 11.5549 22.257 13.2569 21.0628 14.4582L19.8472 15.6668C20.076 16.1959 20.1547 16.8395 20.0259 17.3973L22.0711 15.3593C23.8303 13.6073 23.8374 11.1044 22.064 9.33098C20.2834 7.55038 17.7948 7.56468 16.0357 9.32383L13.5471 11.8124C11.788 13.5715 11.7808 16.0672 13.5543 17.8407C13.969 18.2626 14.5411 18.5772 15.3635 18.7274ZM16.0285 12.6848L14.9344 13.7932C15.7782 13.8719 16.3861 14.1436 16.8223 14.5798C18.038 15.7883 18.0308 17.4974 16.8294 18.6988L14.4553 21.0729C13.2468 22.2814 11.5449 22.2814 10.3435 21.0729C9.12782 19.8572 9.13498 18.1625 10.3363 16.9611L11.5449 15.7454C11.316 15.2234 11.2445 14.5798 11.3661 14.0149L9.3209 16.0601C7.56176 17.8121 7.55461 20.3078 9.32805 22.0812C11.1086 23.8618 13.5972 23.8475 15.3563 22.0955L17.8449 19.5998C19.604 17.8407 19.6112 15.345 17.8377 13.5715C17.423 13.1568 16.858 12.8421 16.0285 12.6848Z" fill="inherit"/>
</svg>
