<svg width="18" height="18" viewBox="0 0 18 18" fill="none" xmlns="http://www.w3.org/2000/svg">
<path d="M8.04835 0.939075C8.34705 0.0164019 9.65243 0.0164019 9.95113 0.939075L11.4845 5.67555C11.5513 5.88182 11.7434 6.02155 11.9602 6.02155H16.9312C17.899 6.02155 18.3024 7.2593 17.5203 7.82954L13.494 10.7656C13.3194 10.8929 13.2464 11.118 13.3129 11.3236L14.8491 16.0689C15.1476 16.9908 14.0915 17.7558 13.3085 17.1848L9.29434 14.2577C9.1188 14.1297 8.88068 14.1297 8.70514 14.2577L4.69094 17.1848C3.90794 17.7558 2.85189 16.9908 3.15036 16.0689L4.68656 11.3236C4.75312 11.118 4.68006 10.8929 4.50546 10.7656L0.479132 7.82954C-0.302871 7.2593 0.100489 6.02155 1.06833 6.02155H6.03931C6.25612 6.02155 6.44823 5.88182 6.515 5.67555L8.04835 0.939075Z" fill="#3787EB"/>
</svg>
