<svg width="16" height="16" viewBox="0 0 16 16" fill="none" xmlns="http://www.w3.org/2000/svg">
<path d="M5.26562 13.3875H8.98516C11.1719 13.3875 12.5641 12.2344 12.5641 10.4695C12.5641 9.08437 11.5305 8.07891 10.0891 8.00859V7.94531C11.2773 7.79063 12.1 6.89766 12.1 5.75859C12.1 4.16953 10.8766 3.19922 8.87266 3.19922H5.26562C4.47109 3.19922 4 3.66328 4 4.47188V12.1148C4 12.9234 4.47109 13.3875 5.26562 13.3875ZM6.55234 7.40391V4.94297H8.06406C9.02031 4.94297 9.58984 5.38594 9.58984 6.13828C9.58984 6.92578 8.96406 7.40391 7.90937 7.40391H6.55234ZM6.55234 11.6648V8.92266H8.11328C9.30156 8.92266 9.96953 9.40078 9.96953 10.2797C9.96953 11.1797 9.35781 11.6648 8.18359 11.6648H6.55234Z" fill="#1C1C1E"/>
</svg>
