<svg width="16" height="16" viewBox="0 0 16 16" fill="none" xmlns="http://www.w3.org/2000/svg">
<path d="M15.2941 7.79412C15.4078 7.90782 15.4078 8.09218 15.2941 8.20588L12.3527 11.1473C12.1579 11.3421 11.8421 11.3421 11.6473 11.1473C11.4527 10.9527 11.4526 10.6372 11.647 10.4423L13.921 8.16427C14.0116 8.0735 14.0116 7.9265 13.921 7.83573L11.647 5.55766C11.4526 5.36284 11.4527 5.0473 11.6473 4.85266C11.8421 4.65789 12.1579 4.65789 12.3527 4.85266L15.2941 7.79412ZM0.705882 8.20588C0.592176 8.09218 0.592177 7.90782 0.705882 7.79412L3.64734 4.85266C3.84211 4.65789 4.15789 4.65789 4.35266 4.85266C4.5473 5.0473 4.54744 5.36284 4.35297 5.55766L2.07898 7.83573C1.98837 7.9265 1.98837 8.0735 2.07898 8.16427L4.35297 10.4423C4.54744 10.6372 4.5473 10.9527 4.35266 11.1473C4.15789 11.3421 3.84211 11.3421 3.64734 11.1473L0.705882 8.20588Z" fill="#212529"/>
</svg>
