<svg width="16" height="16" viewBox="0 0 16 16" fill="none" xmlns="http://www.w3.org/2000/svg">
<path d="M4.70312 13.3875H9.20312C9.61797 13.3875 9.89922 13.1414 9.89922 12.7266C9.89922 12.3328 9.625 12.0867 9.21016 12.0867H7.77578L9.40703 4.5H10.8344C11.2492 4.5 11.5375 4.25391 11.5375 3.84609C11.5375 3.44531 11.2562 3.19922 10.8414 3.19922H6.32734C5.9125 3.19922 5.63125 3.44531 5.63125 3.84609C5.63125 4.25391 5.91953 4.5 6.33438 4.5H7.76172L6.13047 12.0867H4.69609C4.28125 12.0867 4 12.3328 4 12.7266C4 13.1414 4.28828 13.3875 4.70312 13.3875Z" fill="#1C1C1E"/>
</svg>

