<svg width="16" height="16" viewBox="0 0 16 16" fill="none" xmlns="http://www.w3.org/2000/svg">
<path d="M2.37505 5.30469C2.66333 5.30469 2.86021 5.15 2.86021 4.79844V2.51328C2.86021 2.19688 2.63521 2 2.31177 2C2.05161 2 1.88989 2.09141 1.70005 2.21094L1.20083 2.55547C1.04614 2.65391 0.97583 2.75234 0.97583 2.91406C0.97583 3.11094 1.12349 3.24453 1.29224 3.2375C1.38364 3.2375 1.43286 3.22344 1.55239 3.13906L1.8688 2.92813H1.88286V4.79844C1.88286 5.15 2.07974 5.30469 2.37505 5.30469ZM5.37739 4.48906H14.6516C15.0313 4.48906 15.3336 4.19375 15.3336 3.81406C15.3336 3.43438 15.0383 3.13906 14.6516 3.13906H5.37739C4.9977 3.13906 4.70239 3.43438 4.70239 3.81406C4.70239 4.19375 4.9977 4.48906 5.37739 4.48906ZM1.22192 9.61484H3.07114C3.27505 9.61484 3.43677 9.47422 3.43677 9.25625C3.43677 9.03125 3.28208 8.89062 3.07114 8.89062H2.07974V8.87656L2.64927 8.41953C3.13442 8.02578 3.33833 7.80078 3.33833 7.37188C3.33833 6.78828 2.84614 6.40156 2.05864 6.40156C1.36255 6.40156 0.86333 6.75313 0.86333 7.21016C0.86333 7.44922 1.01802 7.57578 1.27114 7.57578C1.43286 7.57578 1.55239 7.51953 1.65786 7.36484C1.76333 7.20312 1.88989 7.11875 2.07271 7.11875C2.26958 7.11875 2.41021 7.24531 2.41021 7.43516C2.41021 7.60391 2.32583 7.7375 1.96021 8.03984L1.02505 8.79922C0.884424 8.91875 0.821143 9.04531 0.821143 9.21406C0.821143 9.44609 0.97583 9.61484 1.22192 9.61484ZM5.37739 8.81328H14.6516C15.0313 8.81328 15.3336 8.51797 15.3336 8.13828C15.3336 7.75859 15.0383 7.46328 14.6516 7.46328H5.37739C4.9977 7.46328 4.70239 7.75859 4.70239 8.13828C4.70239 8.51797 4.9977 8.81328 5.37739 8.81328ZM2.07271 14.0516C2.94458 14.0516 3.45083 13.6719 3.45083 13.0672C3.45083 12.6664 3.17661 12.3992 2.67739 12.357V12.3359C3.03599 12.2656 3.32427 12.0195 3.32427 11.6047C3.32427 11.0492 2.77583 10.7539 2.06567 10.7539C1.50317 10.7539 0.877393 11.007 0.877393 11.4922C0.877393 11.7031 1.03208 11.8508 1.25708 11.8508C1.4188 11.8508 1.49614 11.7875 1.59458 11.682C1.76333 11.5063 1.89692 11.457 2.06567 11.457C2.27661 11.457 2.4313 11.5555 2.4313 11.7594C2.4313 11.9492 2.27661 12.0477 1.99536 12.0477H1.90396C1.70708 12.0477 1.57349 12.1531 1.57349 12.3711C1.57349 12.575 1.70005 12.6875 1.90396 12.6875H2.00239C2.30474 12.6875 2.46646 12.7859 2.47349 12.9969C2.47349 13.1867 2.29771 13.3133 2.07271 13.3133C1.81958 13.3133 1.6438 13.1727 1.51021 13.0531C1.42583 12.9758 1.34849 12.9125 1.21489 12.9125C0.968799 12.9125 0.800049 13.0531 0.800049 13.2922C0.800049 13.7773 1.47505 14.0516 2.07271 14.0516ZM5.37739 13.1375H14.6516C15.0313 13.1375 15.3336 12.8422 15.3336 12.4625C15.3336 12.0828 15.0383 11.7875 14.6516 11.7875H5.37739C4.9977 11.7875 4.70239 12.0828 4.70239 12.4625C4.70239 12.8422 4.9977 13.1375 5.37739 13.1375Z" fill="#1C1C1E"/>
</svg>
