<svg width="16" height="16" viewBox="0 0 16 16" fill="none" xmlns="http://www.w3.org/2000/svg">
<path d="M1.79849 5.19609C2.35396 5.19609 2.79692 4.75313 2.79692 4.19766C2.79692 3.64922 2.35396 3.19922 1.79849 3.19922C1.25005 3.19922 0.800049 3.64922 0.800049 4.19766C0.800049 4.75313 1.25005 5.19609 1.79849 5.19609ZM5.10317 4.87266H14.6516C15.0313 4.87266 15.3336 4.57734 15.3336 4.19766C15.3336 3.81797 15.0383 3.52266 14.6516 3.52266H5.10317C4.73052 3.52266 4.42817 3.81797 4.42817 4.19766C4.42817 4.57734 4.72349 4.87266 5.10317 4.87266ZM1.79849 9.52031C2.35396 9.52031 2.79692 9.07734 2.79692 8.52187C2.79692 7.97344 2.35396 7.52344 1.79849 7.52344C1.25005 7.52344 0.800049 7.97344 0.800049 8.52187C0.800049 9.07734 1.25005 9.52031 1.79849 9.52031ZM5.10317 9.19688H14.6516C15.0313 9.19688 15.3336 8.90156 15.3336 8.52187C15.3336 8.14219 15.0383 7.84688 14.6516 7.84688H5.10317C4.73052 7.84688 4.42817 8.14219 4.42817 8.52187C4.42817 8.90156 4.72349 9.19688 5.10317 9.19688ZM1.79849 13.8445C2.35396 13.8445 2.79692 13.4016 2.79692 12.8461C2.79692 12.2977 2.35396 11.8477 1.79849 11.8477C1.25005 11.8477 0.800049 12.2977 0.800049 12.8461C0.800049 13.4016 1.25005 13.8445 1.79849 13.8445ZM5.10317 13.5211H14.6516C15.0313 13.5211 15.3336 13.2258 15.3336 12.8461C15.3336 12.4664 15.0383 12.1711 14.6516 12.1711H5.10317C4.73052 12.1711 4.42817 12.4664 4.42817 12.8461C4.42817 13.2258 4.72349 13.5211 5.10317 13.5211Z" fill="#1C1C1E"/>
</svg>
