<svg  viewBox="0 0 16 17" fill="none" xmlns="http://www.w3.org/2000/svg">
<path d="M15.2941 8.29412C15.4078 8.40782 15.4078 8.59218 15.2941 8.70588L12.3527 11.6473C12.1579 11.8421 11.8421 11.8421 11.6473 11.6473C11.4527 11.4527 11.4526 11.1372 11.647 10.9423L13.921 8.66427C14.0116 8.5735 14.0116 8.4265 13.921 8.33573L11.647 6.05766C11.4526 5.86284 11.4527 5.5473 11.6473 5.35266C11.8421 5.15789 12.1579 5.15789 12.3527 5.35266L15.2941 8.29412ZM0.705882 8.70588C0.592176 8.59218 0.592177 8.40782 0.705882 8.29412L3.64734 5.35266C3.84211 5.15789 4.15789 5.15789 4.35266 5.35266C4.5473 5.5473 4.54744 5.86284 4.35297 6.05766L2.07898 8.33573C1.98837 8.4265 1.98837 8.5735 2.07898 8.66427L4.35297 10.9423C4.54744 11.1372 4.5473 11.4527 4.35266 11.6473C4.15789 11.8421 3.84211 11.8421 3.64734 11.6473L0.705882 8.70588Z" fill="#212529"/>
</svg>
