<svg  viewBox="0 0 16 17" fill="none" xmlns="http://www.w3.org/2000/svg">
<path d="M4.70312 13.8882H9.20312C9.61797 13.8882 9.89922 13.6421 9.89922 13.2273C9.89922 12.8335 9.625 12.5875 9.21016 12.5875H7.77578L9.40703 5.00073H10.8344C11.2492 5.00073 11.5375 4.75464 11.5375 4.34683C11.5375 3.94604 11.2562 3.69995 10.8414 3.69995H6.32734C5.9125 3.69995 5.63125 3.94604 5.63125 4.34683C5.63125 4.75464 5.91953 5.00073 6.33438 5.00073H7.76172L6.13047 12.5875H4.69609C4.28125 12.5875 4 12.8335 4 13.2273C4 13.6421 4.28828 13.8882 4.70312 13.8882Z" fill="#1C1C1E"/>
</svg>
