<svg  viewBox="0 0 16 17" fill="none" xmlns="http://www.w3.org/2000/svg">
<path d="M2.37578 5.80469C2.66406 5.80469 2.86094 5.65 2.86094 5.29844V3.01328C2.86094 2.69688 2.63594 2.5 2.3125 2.5C2.05234 2.5 1.89062 2.59141 1.70078 2.71094L1.20156 3.05547C1.04688 3.15391 0.976562 3.25234 0.976562 3.41406C0.976562 3.61094 1.12422 3.74453 1.29297 3.7375C1.38438 3.7375 1.43359 3.72344 1.55313 3.63906L1.86953 3.42813H1.88359V5.29844C1.88359 5.65 2.08047 5.80469 2.37578 5.80469ZM5.37813 4.98906H14.6523C15.032 4.98906 15.3344 4.69375 15.3344 4.31406C15.3344 3.93438 15.0391 3.63906 14.6523 3.63906H5.37813C4.99844 3.63906 4.70312 3.93438 4.70312 4.31406C4.70312 4.69375 4.99844 4.98906 5.37813 4.98906ZM1.22266 10.1148H3.07188C3.27578 10.1148 3.4375 9.97422 3.4375 9.75625C3.4375 9.53125 3.28281 9.39062 3.07188 9.39062H2.08047V9.37656L2.65 8.91953C3.13516 8.52578 3.33906 8.30078 3.33906 7.87188C3.33906 7.28828 2.84687 6.90156 2.05938 6.90156C1.36328 6.90156 0.864063 7.25313 0.864063 7.71016C0.864063 7.94922 1.01875 8.07578 1.27187 8.07578C1.43359 8.07578 1.55313 8.01953 1.65859 7.86484C1.76406 7.70312 1.89062 7.61875 2.07344 7.61875C2.27031 7.61875 2.41094 7.74531 2.41094 7.93516C2.41094 8.10391 2.32656 8.2375 1.96094 8.53984L1.02578 9.29922C0.885156 9.41875 0.821875 9.54531 0.821875 9.71406C0.821875 9.94609 0.976562 10.1148 1.22266 10.1148ZM5.37813 9.31328H14.6523C15.032 9.31328 15.3344 9.01797 15.3344 8.63828C15.3344 8.25859 15.0391 7.96328 14.6523 7.96328H5.37813C4.99844 7.96328 4.70312 8.25859 4.70312 8.63828C4.70312 9.01797 4.99844 9.31328 5.37813 9.31328ZM2.07344 14.5516C2.94531 14.5516 3.45156 14.1719 3.45156 13.5672C3.45156 13.1664 3.17734 12.8992 2.67813 12.857V12.8359C3.03672 12.7656 3.325 12.5195 3.325 12.1047C3.325 11.5492 2.77656 11.2539 2.06641 11.2539C1.50391 11.2539 0.878125 11.507 0.878125 11.9922C0.878125 12.2031 1.03281 12.3508 1.25781 12.3508C1.41953 12.3508 1.49687 12.2875 1.59531 12.182C1.76406 12.0063 1.89766 11.957 2.06641 11.957C2.27734 11.957 2.43203 12.0555 2.43203 12.2594C2.43203 12.4492 2.27734 12.5477 1.99609 12.5477H1.90469C1.70781 12.5477 1.57422 12.6531 1.57422 12.8711C1.57422 13.075 1.70078 13.1875 1.90469 13.1875H2.00313C2.30547 13.1875 2.46719 13.2859 2.47422 13.4969C2.47422 13.6867 2.29844 13.8133 2.07344 13.8133C1.82031 13.8133 1.64453 13.6727 1.51094 13.5531C1.42656 13.4758 1.34922 13.4125 1.21563 13.4125C0.969531 13.4125 0.800781 13.5531 0.800781 13.7922C0.800781 14.2773 1.47578 14.5516 2.07344 14.5516ZM5.37813 13.6375H14.6523C15.032 13.6375 15.3344 13.3422 15.3344 12.9625C15.3344 12.5828 15.0391 12.2875 14.6523 12.2875H5.37813C4.99844 12.2875 4.70312 12.5828 4.70312 12.9625C4.70312 13.3422 4.99844 13.6375 5.37813 13.6375Z" fill="#1C1C1E"/>
</svg>
