<svg  viewBox="0 0 16 17" fill="none" xmlns="http://www.w3.org/2000/svg">
<path d="M1.79922 5.69683C2.35469 5.69683 2.79766 5.25386 2.79766 4.69839C2.79766 4.14995 2.35469 3.69995 1.79922 3.69995C1.25078 3.69995 0.800781 4.14995 0.800781 4.69839C0.800781 5.25386 1.25078 5.69683 1.79922 5.69683ZM5.10391 5.37339H14.6523C15.032 5.37339 15.3344 5.07808 15.3344 4.69839C15.3344 4.3187 15.0391 4.02339 14.6523 4.02339H5.10391C4.73125 4.02339 4.42891 4.3187 4.42891 4.69839C4.42891 5.07808 4.72422 5.37339 5.10391 5.37339ZM1.79922 10.021C2.35469 10.021 2.79766 9.57808 2.79766 9.02261C2.79766 8.47417 2.35469 8.02417 1.79922 8.02417C1.25078 8.02417 0.800781 8.47417 0.800781 9.02261C0.800781 9.57808 1.25078 10.021 1.79922 10.021ZM5.10391 9.69761H14.6523C15.032 9.69761 15.3344 9.4023 15.3344 9.02261C15.3344 8.64292 15.0391 8.34761 14.6523 8.34761H5.10391C4.73125 8.34761 4.42891 8.64292 4.42891 9.02261C4.42891 9.4023 4.72422 9.69761 5.10391 9.69761ZM1.79922 14.3453C2.35469 14.3453 2.79766 13.9023 2.79766 13.3468C2.79766 12.7984 2.35469 12.3484 1.79922 12.3484C1.25078 12.3484 0.800781 12.7984 0.800781 13.3468C0.800781 13.9023 1.25078 14.3453 1.79922 14.3453ZM5.10391 14.0218H14.6523C15.032 14.0218 15.3344 13.7265 15.3344 13.3468C15.3344 12.9671 15.0391 12.6718 14.6523 12.6718H5.10391C4.73125 12.6718 4.42891 12.9671 4.42891 13.3468C4.42891 13.7265 4.72422 14.0218 5.10391 14.0218Z" fill="#1C1C1E"/>
</svg>
