<svg width="32" height="32" viewBox="0 0 32 32" fill="none" xmlns="http://www.w3.org/2000/svg">
<rect width="32" height="32" rx="4" fill="#F4F6F8"/>
<path fill-rule="evenodd" clip-rule="evenodd" d="M13.4161 24.7041H22.6637C23.7886 24.7041 24.7036 23.7891 24.7036 22.6642V13.4166C24.7036 12.2917 23.7886 11.3767 22.6637 11.3767H13.4161C12.2912 11.3767 11.3762 12.2917 11.3762 13.4166V22.6642C11.3762 23.7891 12.2912 24.7041 13.4161 24.7041ZM12.7361 13.4166C12.7361 13.0417 13.0412 12.7366 13.4161 12.7366H22.6637C23.0386 12.7366 23.3437 13.0417 23.3437 13.4166V22.6642C23.3437 23.0391 23.0386 23.3442 22.6637 23.3442H13.4161C13.0412 23.3442 12.7361 23.0391 12.7361 22.6642V13.4166ZM9.3363 19.2643H10.0163V20.6243H9.3363C8.21135 20.6243 7.29639 19.7093 7.29639 18.5844V9.33678C7.29639 8.21184 8.21135 7.29688 9.3363 7.29688H18.5839C19.7088 7.29688 20.6238 8.21184 20.6238 9.33678V9.98276H19.2639V9.33678C19.2639 8.96185 18.9588 8.65681 18.5839 8.65681H9.3363C8.96136 8.65681 8.65633 8.96185 8.65633 9.33678V18.5844C8.65633 18.9593 8.96136 19.2643 9.3363 19.2643ZM18.5111 14.5569C18.5111 14.2807 18.2873 14.0569 18.0111 14.0569C17.735 14.0569 17.5111 14.2807 17.5111 14.5569V17.5383H14.5297C14.2536 17.5383 14.0297 17.7622 14.0297 18.0383C14.0297 18.3144 14.2536 18.5383 14.5297 18.5383H17.5111V21.5197C17.5111 21.7959 17.735 22.0197 18.0111 22.0197C18.2873 22.0197 18.5111 21.7959 18.5111 21.5197V18.5383H21.4926C21.7687 18.5383 21.9926 18.3144 21.9926 18.0383C21.9926 17.7622 21.7687 17.5383 21.4926 17.5383H18.5111V14.5569Z" fill="#ABBED1"/>
</svg>
