<svg width="32" height="32" viewBox="0 0 32 32" fill="none" xmlns="http://www.w3.org/2000/svg">
<rect width="32" height="32" rx="4" fill="#F4F6F8"/>
<path d="M23.8131 9.70723L24.4879 9.0357C24.8222 8.69993 24.8345 8.33308 24.5312 8.02219L24.2898 7.77347C23.9865 7.4688 23.6088 7.49989 23.2807 7.82943L22.606 8.49474L23.8131 9.70723ZM16.2299 17.3117L23.2188 10.2917L22.0179 9.09166L15.0289 16.0992L14.4222 17.5666C14.3542 17.7532 14.5461 17.9583 14.7318 17.8899L16.2299 17.3117Z" fill="#ABBED1"/>
<path fill-rule="evenodd" clip-rule="evenodd" d="M20.0646 9.03906H10.5C9.39543 9.03906 8.5 9.93449 8.5 11.0391V21.8118C8.5 22.9164 9.39543 23.8118 10.5 23.8118H21.2727C22.3773 23.8118 23.2727 22.9164 23.2727 21.8118V12.0985L22.2727 13.0985V21.8118C22.2727 22.3641 21.825 22.8118 21.2727 22.8118H10.5C9.94772 22.8118 9.5 22.3641 9.5 21.8118V11.0391C9.5 10.4868 9.94771 10.0391 10.5 10.0391H19.0646L20.0646 9.03906Z" fill="#ABBED1"/>
</svg>
