<svg width="32" height="32" viewBox="0 0 32 32" fill="none" xmlns="http://www.w3.org/2000/svg">
<rect width="32" height="32" rx="4" fill="#F4F6F8"/>
<path fill-rule="evenodd" clip-rule="evenodd" d="M21.417 11.4134H10.582L11.1546 21.5928C11.1854 22.1402 11.206 22.4922 11.2425 22.7597C11.2774 23.0151 11.3176 23.1102 11.3443 23.1579C11.4438 23.3355 11.595 23.4785 11.7779 23.5678C11.8271 23.5918 11.9242 23.6266 12.1812 23.647C12.4503 23.6685 12.8029 23.6692 13.3512 23.6692H18.6479C19.1961 23.6692 19.5488 23.6685 19.8179 23.647C20.0749 23.6266 20.172 23.5918 20.2212 23.5678C20.404 23.4785 20.5553 23.3355 20.6547 23.1579C20.6815 23.1102 20.7216 23.0151 20.7565 22.7597C20.7931 22.4922 20.8136 22.1402 20.8444 21.5928L21.417 11.4134ZM22.4834 10.2607L22.4834 10.2606H21.4818H19.3118C19.2226 9.58812 19.1463 9.20107 18.9555 8.89561C18.7498 8.56616 18.4525 8.30375 18.1001 8.14044C17.7001 7.95508 17.2 7.95508 16.1999 7.95508H15.798C14.7979 7.95508 14.2978 7.95508 13.8978 8.14044C13.5454 8.30375 13.2481 8.56616 13.0424 8.89561C12.8516 9.20107 12.7753 9.58812 12.6861 10.2606H10.5172H9.51562L9.51563 10.2607H8.5075C8.18919 10.2607 7.93115 10.5187 7.93115 10.837C7.93115 11.1553 8.18919 11.4134 8.5075 11.4134H9.58047L10.1562 21.649C10.216 22.7118 10.2459 23.2432 10.4718 23.6466C10.6707 24.0017 10.9732 24.2877 11.339 24.4663C11.7544 24.6692 12.2867 24.6692 13.3512 24.6692H18.6479C19.7124 24.6692 20.2446 24.6692 20.6601 24.4663C21.0258 24.2877 21.3283 24.0017 21.5272 23.6466C21.7531 23.2432 21.783 22.7118 21.8428 21.649L22.4186 11.4134H23.4925C23.8108 11.4134 24.0688 11.1553 24.0688 10.837C24.0688 10.5187 23.8108 10.2607 23.4925 10.2607H22.4834ZM18.2266 9.79502C18.253 9.92396 18.2768 10.0743 18.3027 10.2606H13.6952C13.7211 10.0743 13.745 9.92396 13.7713 9.79502C13.8195 9.55897 13.8622 9.47079 13.8905 9.42534C13.9934 9.26062 14.142 9.12941 14.3183 9.04776C14.3669 9.02523 14.4597 8.99383 14.6999 8.97528C14.9525 8.95577 15.2826 8.95508 15.798 8.95508H16.1999C16.7153 8.95508 17.0454 8.95577 17.298 8.97528C17.5382 8.99383 17.631 9.02523 17.6796 9.04776C17.8559 9.12941 18.0045 9.26062 18.1074 9.42534C18.1358 9.47079 18.1784 9.55897 18.2266 9.79502ZM13.6167 13.1423C13.6167 12.8661 13.3928 12.6423 13.1167 12.6423C12.8406 12.6423 12.6167 12.8661 12.6167 13.1423V21.7875C12.6167 22.0636 12.8406 22.2875 13.1167 22.2875C13.3928 22.2875 13.6167 22.0636 13.6167 21.7875L13.6167 13.1423ZM16.5 13.1423C16.5 12.8661 16.2761 12.6423 16 12.6423C15.7239 12.6423 15.5 12.8661 15.5 13.1423L15.5 21.7875C15.5 22.0636 15.7239 22.2875 16 22.2875C16.2761 22.2875 16.5 22.0636 16.5 21.7875V13.1423ZM18.8809 12.6423C19.157 12.6423 19.3809 12.8661 19.3809 13.1423V21.7875C19.3809 22.0636 19.157 22.2875 18.8809 22.2875C18.6047 22.2875 18.3809 22.0636 18.3809 21.7875V13.1423C18.3809 12.8661 18.6047 12.6423 18.8809 12.6423Z" fill="#ABBED1"/>
</svg>
