<svg width="21" height="22" viewBox="0 0 21 22" fill="none" xmlns="http://www.w3.org/2000/svg">
<mask id="mask0_0_2193" style="mask-type:luminance" maskUnits="userSpaceOnUse" x="0" y="0" width="21" height="22">
<path d="M20.7273 0.63623H0V21.3635H20.7273V0.63623Z" fill="white"/>
</mask>
<g mask="url(#mask0_0_2193)">
<path fill-rule="evenodd" clip-rule="evenodd" d="M9.82002 19.2492C14.0813 19.2492 17.5358 15.7947 17.5358 11.5334C17.5358 7.27212 14.0813 3.81768 9.82002 3.81768C5.55875 3.81768 2.10429 7.27212 2.10429 11.5334C2.10429 15.7947 5.55875 19.2492 9.82002 19.2492ZM9.82002 21.3534C15.2435 21.3534 19.6401 16.9569 19.6401 11.5334C19.6401 6.10996 15.2435 1.71338 9.82002 1.71338C4.39658 1.71338 0 6.10996 0 11.5334C0 16.9569 4.39658 21.3534 9.82002 21.3534Z" fill="white"/>
<path d="M20.71 8.82368C20.2168 6.84141 19.192 5.03132 17.746 3.58853C16.3 2.14575 14.4876 1.12497 12.5043 0.63623L8.48633 12.9185L20.71 8.82368Z" fill="#EA5471"/>
</g>
</svg>
