<svg xmlns="http://www.w3.org/2000/svg" xml:space="preserve" width="1440" height="900" style="shape-rendering:geometricPrecision;text-rendering:geometricPrecision;image-rendering:optimizeQuality;fill-rule:evenodd;clip-rule:evenodd"><defs><radialGradient id="id0" gradientUnits="userSpaceOnUse" gradientTransform="rotate(108.93 875.523 -423.455) scale(1.79353)" cx="661.316" cy="-168.944" r="960" fx="661.316" fy="-168.944"><stop offset="0" style="stop-opacity:1;stop-color:#fefefe"/><stop offset=".58" style="stop-opacity:1;stop-color:#f8fcff"/><stop offset=".769" style="stop-opacity:1;stop-color:#d4d9ec"/><stop offset="1" style="stop-opacity:1;stop-color:#333e97"/></radialGradient><style>.str0,.str1,.str3{stroke:#333f91;stroke-width:.756;stroke-miterlimit:22.9256}.str1,.str3{stroke:#4652a4}.str3{stroke:#fdfdff}.fil2{fill:#333f91}.fil4{fill:#4652a4}.fil8{fill:#fdfdff}</style></defs><g id="Слой_x0020_1"><g id="_2384722694320"><path d="M-5.5-1.5h1449.6v906H-5.5v-906zm1449.315.285H-5.214v905.43h1449.029V-1.215z" style="fill:#718bc6;fill-rule:nonzero"/><path style="fill:#718bc6" d="M-5.5-1.5h1449.6v906H-5.5z"/><path class="fil2 str0" d="M-5.5 904.5V727.234L348.371 904.5z"/><path class="str1" d="M277.491 472.803h3.515l2.144.71a4.318 4.318 0 0 1 3.935.382l5.322 3.448 26.121 13.061 2.698.936 2.568-2.568 1.712-3.423v-32.525l-3.424-5.135-5.135-3.423-15.406-8.56-15.406-8.559-8.559-10.27v-10.271l1.711-3.423h5.136l6.847 3.423 11.983 6.847 6.847 5.135 8.559 3.424h3.423l3.424-5.135v-6.847l-3.424-8.559-6.847-5.136-8.558-5.135-10.271-3.424-10.271-6.846-6.848-5.136-1.711-6.847v-8.559l1.711-5.136h5.136l6.847 3.424 10.271 5.135 6.847 3.424 5.135 3.424 6.847 3.423 3.424-1.712 1.712-8.559V321.017l1.712-3.424 3.423-1.712 1.712-1.712h1.712l1.086.363 1.729-.577h1.712l1.712 1.712 3.423 1.712 1.712 3.424V363.597l1.712 8.559 3.424 1.711 6.847-3.423 5.135-3.423 6.848-3.424 10.27-5.135 6.847-3.424h5.136l1.711 5.136v8.559l-1.711 6.847-6.848 5.135-10.271 6.847-10.27 3.424-8.559 5.135-6.847 5.136-3.424 8.559v6.846l3.424 5.136h3.423l8.56-3.424 6.846-5.135 11.983-6.847 6.847-3.423h5.136l1.711 3.423v10.27l-8.559 10.271-15.405 8.559-15.407 8.559-5.135 3.424-3.424 5.136v32.523l1.712 3.424 2.568 2.567 2.699-.936-4.98 2.989 28.791-15.404 9.218-4.409 7.812-.562c2.289-.165 4.171 1.878 4.171 4.171v39.2l4.735 2.291 3.53.85 3.814-.325 27.743-16.976 2.593-5.601.241-6.167-.741-17.609-.74-17.608 4.294-12.661 8.761-5.36 3.813-.327 2.681 4.38.653 7.628.413 13.794-.806 8.521 1.547 9.088 1.787 2.92 6.167.24 5.84-3.573 5.514-7.388.807-8.521-.087-9.981-2.44-10.548.48-12.334.807-8.521 4.947-5.034 7.3-4.467 5.274-1.22 2.681 4.38.653 7.628.98 11.441.654 7.627-.241 6.167.654 7.628 3.247 2.027 8.194-3.007 5.841-3.574 7.3-4.467 8.761-5.361 8.761-5.36 5.84-3.574 3.814-.326 3.248 2.026 2.353.567.894 1.46.257 1.115 1.394 1.175.894 1.46-.567 2.354.327 3.814-2.027 3.247-5.84 3.573-8.762 5.361-8.761 5.36-7.3 4.467-5.84 3.574-6.408 5.928.328 3.813 6.493 4.054 5.6 2.593 6.495 4.054 9.741 6.081 6.493 4.053 2.681 4.381-3.487 4.14-7.301 4.467-6.734 2.114-7.954-3.16-11.201-5.188-8.281-6.974-8.847-4.62-7.955-3.16-9.087 1.547-5.841 3.573-2.593 5.601 1.786 2.92 7.388 5.515 7.954 3.159 12.095 6.647 6.493 4.054 2.681 4.381-2.027 3.246-8.761 5.361-13.228-1.94-15.341-8.674-15.342-8.674-5.6-2.594-6.168-.24-27.743 16.976-2.026 3.246-.85 3.531 2.207 1.813-8.195-4.278 40.878 25.877c1.939 1.227 2.339 3.931 1.025 5.808l-2.017 2.88-5.803 4.323-29.826 16.15h.001l-2.434 4.621 1.103 3.46 2.254 3.092 28.895 14.932 6.134-.684 5.398-2.99 14.678-9.757 14.677-9.757 13.053-2.888 9.124 4.715 2.255 3.092-2.357 4.562-6.184 4.512-11.585 7.5-7.705 3.726-6.972 6.032-1.572 3.041 2.991 5.399 6.083 3.144 9.176.888 7.705-3.725 8.492-5.246 7.756-7.553 10.798-5.98 7.706-3.727 6.869 1.624 7.604 3.93 3.777 3.877-2.358 4.563-6.186 4.511-9.277 6.766-6.185 4.512-5.399 2.99-6.185 4.511-.051 3.827 6.818 5.451 6.083 3.144 7.603 3.929 9.124 4.715 9.125 4.715 6.083 3.144 2.256 3.092-.052 3.827.735 2.307-.786 1.522-.82.798-.282 1.801-.786 1.52-2.307.735-3.092 2.256-3.827-.051-6.083-3.144-9.125-4.715-9.124-4.716-7.603-3.928-6.083-3.144-8.39-2.409-3.092 2.256-.102 7.654.683 6.134-.102 7.656-.153 11.481-.102 7.655-2.358 4.562-5.348-.837-7.603-3.93-5.297-4.664-1.419-8.441-1.367-12.267 1.673-10.696-.632-9.961-1.419-8.441-6.032-6.971-6.083-3.144-6.134.684-1.572 3.041-.888 9.176 1.419 8.44.582 13.789-.102 7.655-2.359 4.562-3.826-.051-9.125-4.715-5.194-12.319-.532-17.616-.53-17.616-.684-6.134-2.99-5.399-28.894-14.932-3.828-.051-3.46 1.102-.162 1.129v41.362a4.183 4.183 0 0 1-4.171 4.171h-3.515l-6.869-2.274-2.294-1.148a4.323 4.323 0 0 1-2.23-.767l-1.735-1.215-24.866-12.433-.379-.127-2.658 2.567-1.771 3.423v32.525l3.543 5.135 5.314 3.424 15.943 8.559 15.942 8.559 8.857 10.271v10.271l-1.771 3.423h-5.315l-7.085-3.423-12.4-6.848-7.085-5.135-8.857-3.424h-3.543l-3.543 5.136v6.847l3.543 8.558 7.085 5.136 8.857 5.135 10.628 3.424 10.629 6.847 7.086 5.136 1.771 6.847v8.558l-1.771 5.136h-5.315l-7.085-3.424-10.628-5.135-7.086-3.423-5.314-3.424-7.086-3.423-3.543 1.711-1.771 8.559V824.282l-1.771 3.424-3.543 1.712-1.772 1.712h-1.771l-1.79-.576-1.124.362h-1.771l-1.772-1.712-3.542-1.712-1.771-3.423v-42.795l-1.772-8.559-3.543-1.711-7.086 3.423-5.313 3.423-7.087 3.424-10.628 5.135-7.085 3.424h-5.315l-1.771-5.136v-8.559l1.771-6.847 7.086-5.135 10.629-6.847 10.628-3.424 8.857-5.135 7.086-5.136 3.543-8.559v-6.847l-3.543-5.135h-3.543l-8.857 3.424-7.086 5.135-12.4 6.847-7.085 3.423h-5.315l-1.771-3.423v-10.271l8.857-10.27 15.942-8.559 15.943-8.559 5.315-3.424 3.543-5.135v-32.524l-1.772-3.424-2.657-2.567-2.793.936 6.658-3.862h-1.077l-30.153 16.133-9.218 4.408-7.812.563c-2.289.164-4.17-1.878-4.17-4.171v-45.522l-1.124-.264-3.812.349-27.645 17.133-2.562 5.616-.204 6.168.84 17.605.841 17.603-4.222 12.685-8.73 5.411-3.811.349-2.705-4.366-.697-7.623-.493-13.793.759-8.524-1.6-9.079-1.803-2.91-6.169-.205-5.819 3.607-5.472 7.419-.758 8.525.144 9.98 2.5 10.534-.41 12.337-.758 8.526-4.918 5.061-7.275 4.509-5.267 1.25-2.705-4.365-.697-7.623-1.045-11.435-.697-7.624.205-6.168-.698-7.624-3.258-2.009-8.177 3.054-5.82 3.607-7.276 4.509-8.729 5.41-8.73 5.411-5.82 3.607-3.813.348-3.258-2.008-2.357-.553-.902-1.455-.263-1.115-1.402-1.165-.902-1.455.554-2.357-.348-3.812 2.008-3.259 5.82-3.606 8.73-5.411 8.73-5.411 7.275-4.509 5.82-3.606 6.374-5.964-.349-3.812-6.517-4.017-5.615-2.561-6.517-4.016-9.776-6.025-6.517-4.017-2.705-4.365 3.464-4.16 7.274-4.509 6.722-2.152 7.973 3.115 11.23 5.123 8.32 6.927 8.874 4.569 7.972 3.115 9.079-1.598 5.82-3.607 2.561-5.616-1.803-2.91-7.419-5.472-7.972-3.115-12.133-6.578-6.517-4.016-2.705-4.365 2.009-3.258 8.73-5.411 13.238 1.865 15.391 8.586 15.391 8.586 5.615 2.562 6.169.205 27.646-17.133 2.008-3.259.395-1.686-.48-.503-42.607-21.991c-2.038-1.052-2.479-3.842-1.231-5.768l1.911-2.949 5.645-4.529 29.632-17.448-2.379-.379 2.172-1.855-.917-3.513-2.088-3.209-28.06-16.444-6.163.358-5.549 2.7-15.175 8.964-15.173 8.965-13.188 2.191-8.862-5.193-2.088-3.207 2.597-4.431 6.415-4.176 11.966-6.877 7.892-3.311 7.282-5.653 1.73-2.953-2.7-5.551-5.907-3.462-9.116-1.373-7.892 3.311-8.757 4.788-8.147 7.13-11.101 5.399-7.892 3.312-6.773-1.985-7.385-4.327-3.565-4.074 2.596-4.43 6.416-4.177 9.623-6.265 6.416-4.177 5.55-2.699 6.416-4.177.254-3.819-6.52-5.804-5.907-3.463-7.384-4.326-8.862-5.194-8.861-5.192-5.907-3.461-2.089-3.209.254-3.819-.612-2.342.866-1.477.862-.755.377-1.782.865-1.477 2.343-.612 3.208-2.088 3.819.254 5.907 3.462 8.862 5.193 8.861 5.192 7.384 4.328 5.908 3.461 8.25 2.851 3.208-2.089.508-7.638-.357-6.162.507-7.639.762-11.457.508-7.638 2.597-4.431 5.296 1.119 7.385 4.328 5.042 4.938.969 8.504.714 12.323-2.239 10.593.104 9.981.969 8.504 5.653 7.28 5.908 3.462 6.162-.357 1.73-2.953 1.374-9.117-.969-8.503.15-13.8.509-7.639 2.596-4.43 3.819.254 8.861 5.193 4.534 12.577-.404 17.619-.404 17.62.356 6.161 2.701 5.55 28.061 16.444 3.818.254 3.515-.917 3.757-3.565v-39.889a4.183 4.183 0 0 1 4.171-4.171zm63.177 178.017h-1.606l.803.129.803-.129zm-90.481-81.594 6.848-5.135 10.27-5.136 6.847-3.424h8.559l10.271 5.136 6.848 5.135 1.711 1.712v3.424l-3.424 3.424-10.27 6.847-6.848 3.423h-10.271l-8.558-3.423-10.271-5.136-1.712-1.711v-5.136zm43.703-73.251 7.484 4.153 8.883 7.277 5.922 4.852 3.496 7.812-.493 11.473-1.89 8.347-.864 2.262-3.125 1.398-4.523-1.726-10.445-6.578-5.922-4.852-4.196-9.375-.37-9.211.493-11.472.863-2.262 4.687-2.098zm81.366 1.712-7.485 4.153-8.883 7.277-5.921 4.852-3.496 7.812.493 11.473 1.89 8.347.864 2.262 3.125 1.398 4.523-1.726 10.445-6.578 5.922-4.852 4.195-9.375.371-9.211-.493-11.473-.863-2.261-4.687-2.098zm49.533 71.539-6.847-5.135-10.271-5.136-6.847-3.424h-8.559l-10.27 5.136-6.848 5.135-1.711 1.712v3.424l3.423 3.424 10.271 6.847 6.847 3.423h10.271l8.559-3.423 10.271-5.136 1.711-1.711v-5.136zm-129.187 75.319 7.484-4.153 8.883-7.277 5.922-4.852 3.496-7.812-.493-11.473-1.89-8.347-.864-2.262-3.125-1.398-4.523 1.726-10.445 6.578-5.923 4.852-4.195 9.375-.37 9.211.493 11.472.863 2.262 4.687 2.098zm81.366 0-7.484-4.153-8.883-7.277-5.922-4.852-3.496-7.812.493-11.473 1.89-8.347.864-2.262 3.125-1.398 4.523 1.726 10.445 6.578 5.922 4.852 4.196 9.375.37 9.211-.493 11.472-.863 2.262-4.687 2.098z" style="fill:#4752a2"/><path class="fil4 str1" d="M1168.973 223.125h1.551l.945.313a1.906 1.906 0 0 1 1.736.168l2.347 1.521 11.521 5.761 1.19.413 1.133-1.133.755-1.51v-14.345l-1.51-2.265-2.265-1.51-6.795-3.775-6.795-3.775-3.775-4.53v-4.53l.755-1.51h2.265l3.02 1.51 5.284 3.02 3.021 2.265 3.775 1.51h1.51l1.51-2.265v-3.02l-1.51-3.775-3.02-2.265-3.775-2.265-4.53-1.51-4.53-3.02-3.02-2.265-.755-3.02v-3.775l.755-2.265h2.265l3.02 1.51 4.53 2.265 3.02 1.51 2.265 1.51 3.019 1.51 1.511-.755.755-3.775v-18.875l.755-1.51 1.51-.755.755-.755h.755l.479.16.762-.254h.756l.755.755 1.509.755.755 1.51V174.958l.756 3.776 1.51.755 3.019-1.51 2.265-1.51 3.021-1.511 4.529-2.264 3.021-1.511h2.265l.755 2.266v3.775l-.755 3.02-3.02 2.265-4.531 3.02-4.529 1.51-3.775 2.265-3.021 2.265-1.51 3.775v3.02l1.51 2.265h1.51l3.776-1.51 3.02-2.265 5.284-3.02 3.021-1.51h2.265l.755 1.51v4.53l-3.775 4.53-6.795 3.775-6.796 3.775-2.265 1.51-1.51 2.265v14.345l.756 1.51 1.132 1.132 1.19-.413-2.196 1.318 12.698-6.794 4.066-1.944 3.446-.248c1.009-.073 1.839.828 1.839 1.839v17.29l2.089 1.011 1.557.375 1.682-.144 12.236-7.487 1.144-2.47.106-2.721-.327-7.766-.326-7.766 1.894-5.585 3.864-2.364 1.682-.144 1.182 1.932.288 3.364.183 6.084-.356 3.758.682 4.009.788 1.288 2.72.106 2.577-1.577 2.431-3.258.356-3.758-.038-4.402-1.076-4.652.211-5.441.356-3.758 2.182-2.22 3.22-1.97 2.326-.539 1.183 1.932.287 3.365.433 5.046.288 3.364-.106 2.72.289 3.364 1.432.894 3.614-1.326 2.576-1.576 3.22-1.971 3.864-2.364 3.864-2.364 2.576-1.576 1.682-.144 1.432.893 1.038.25.394.644.114.492.615.518.394.644-.25 1.038.144 1.683-.894 1.432-2.576 1.576-3.864 2.364-3.864 2.364-3.22 1.971-2.576 1.576-2.826 2.615.144 1.682 2.864 1.787 2.47 1.144 2.865 1.788 4.296 2.682 2.864 1.788 1.182 1.932-1.538 1.826-3.22 1.97-2.97.933-3.508-1.394-4.94-2.288-3.653-3.076-3.902-2.038-3.508-1.394-4.008.683-2.576 1.575-1.144 2.471.788 1.288 3.258 2.432 3.508 1.394 5.335 2.932 2.864 1.788 1.182 1.932-.894 1.431-3.864 2.364-5.834-.855-6.767-3.825-6.766-3.826-2.47-1.144-2.721-.106-12.236 7.487-.894 1.432-.375 1.557.974.8-3.614-1.887 18.029 11.414c.855.54 1.032 1.733.452 2.561l-.889 1.27-2.56 1.907-13.155 7.123h.001l-1.074 2.038.486 1.526.995 1.364 12.744 6.586 2.706-.302 2.38-1.319 6.474-4.303 6.473-4.304 5.758-1.274 4.024 2.08.995 1.364-1.04 2.012-2.728 1.99-5.109 3.308-3.398 1.644-3.075 2.66-.694 1.341 1.319 2.382 2.683 1.386 4.047.392 3.399-1.643 3.745-2.314 3.421-3.331 4.763-2.638 3.398-1.643 3.03.716 3.354 1.733 1.666 1.71-1.041 2.013-2.727 1.989-4.092 2.985-2.728 1.989-2.382 1.319-2.728 1.99-.022 1.688 3.007 2.404 2.683 1.387 3.353 1.733 4.025 2.079 4.024 2.08 2.683 1.386.995 1.364-.023 1.688.325 1.018-.347.671-.362.352-.124.794-.346.671-1.018.324-1.364.995-1.688-.023-2.683-1.386-4.024-2.08-4.025-2.079-3.353-1.733-2.683-1.387-3.701-1.063-1.363.996-.046 3.375.302 2.706-.045 3.377-.068 5.064-.044 3.376-1.04 2.012-2.359-.369-3.354-1.734-2.336-2.057-.626-3.723-.603-5.41.738-4.718-.279-4.393-.626-3.723-2.66-3.075-2.683-1.386-2.706.301-.693 1.342-.391 4.047.625 3.722.257 6.082-.045 3.376-1.04 2.012-1.688-.022-4.024-2.08-2.291-5.433-.235-7.77-.234-7.77-.301-2.705-1.319-2.382-12.744-6.585-1.689-.023-1.526.487-.071.497v18.243c0 1.012-.828 1.84-1.84 1.84h-1.55l-3.03-1.003-1.012-.506a1.906 1.906 0 0 1-.983-.339l-.765-.535-10.968-5.485-.167-.055-1.172 1.132-.781 1.51v14.345l1.562 2.265 2.344 1.51 7.032 3.775 7.031 3.775 3.907 4.53v4.53l-.781 1.51h-2.344l-3.125-1.51-5.47-3.02-3.125-2.265-3.906-1.51h-1.563l-1.562 2.265v3.02l1.562 3.775 3.125 2.265 3.907 2.265 4.687 1.51 4.688 3.02 3.126 2.265.781 3.02v3.775l-.781 2.265h-2.344l-3.125-1.51-4.688-2.265-3.126-1.51-2.343-1.51-3.125-1.51-1.563.755-.781 3.775v18.875l-.782 1.51-1.562.755-.782.755h-.781l-.789-.254-.496.16h-.781l-.782-.755-1.562-.755-.781-1.51V359.179l-.782-3.775-1.562-.755-3.125 1.51-2.344 1.51-3.125 1.51-4.689 2.265-3.124 1.51h-2.344l-.781-2.265v-3.775l.781-3.02 3.125-2.265 4.688-3.02 4.687-1.51 3.907-2.265 3.125-2.265 1.563-3.775v-3.02l-1.563-2.265h-1.562l-3.907 1.51-3.125 2.265-5.47 3.02-3.124 1.51h-2.344l-.781-1.51v-4.53l3.906-4.53 7.032-3.775 7.031-3.776 2.344-1.509 1.563-2.265v-14.345l-.782-1.51-1.172-1.133-1.231.413 2.936-1.703h-.475l-13.299 7.115-4.065 1.945-3.446.248c-1.009.072-1.84-.828-1.84-1.84v-20.077l-.495-.117-1.681.154-12.194 7.557-1.13 2.477-.09 2.72.371 7.765.371 7.764-1.862 5.595-3.851 2.386-1.681.154-1.193-1.925-.307-3.363-.217-6.083.334-3.76-.705-4.004-.796-1.284-2.721-.09-2.566 1.591-2.413 3.272-.335 3.76.063 4.402 1.103 4.646-.18 5.441-.335 3.761-2.169 2.232-3.209 1.989-2.323.551-1.193-1.925-.307-3.362-.462-5.044-.307-3.362.091-2.721-.308-3.363-1.437-.885-3.607 1.347-2.567 1.59-3.208 1.989-3.851 2.386-3.851 2.387-2.566 1.591-1.682.153-1.437-.885-1.039-.244-.398-.642-.116-.492-.618-.514-.398-.642.244-1.039-.154-1.682.886-1.437 2.567-1.59 3.85-2.387 3.851-2.386 3.209-1.989 2.567-1.591 2.811-2.63-.154-1.681-2.874-1.772-2.477-1.13-2.874-1.771-4.312-2.658-2.874-1.771-1.194-1.926 1.528-1.834 3.208-1.989 2.965-.949 3.517 1.374 4.953 2.259 3.67 3.055 3.913 2.016 3.517 1.374 4.004-.705 2.567-1.591 1.13-2.477-.796-1.284-3.272-2.413-3.516-1.374-5.351-2.901-2.874-1.771-1.194-1.926.886-1.437 3.851-2.386 5.838.822 6.789 3.787 6.788 3.787 2.477 1.13 2.721.091 12.193-7.557.886-1.437.174-.744-.212-.222-18.792-9.699c-.899-.464-1.093-1.695-.543-2.544l.843-1.301 2.49-1.998 13.069-7.695-1.049-.168.958-.817-.405-1.55-.92-1.415-12.377-7.253-2.718.158-2.447 1.191-6.693 3.954-6.692 3.953-5.818.967-3.908-2.29-.921-1.415 1.145-1.954 2.83-1.842 5.278-3.033 3.481-1.461 3.211-2.493.763-1.303-1.19-2.448-2.606-1.527-4.02-.605-3.482 1.46-3.862 2.112-3.593 3.145-4.896 2.381-3.481 1.461-2.987-.876-3.258-1.909-1.572-1.796 1.145-1.954 2.83-1.842 4.244-2.764 2.83-1.842 2.448-1.19 2.83-1.843.112-1.684-2.876-2.56-2.605-1.527-3.257-1.909-3.909-2.29-3.908-2.29-2.605-1.527-.922-1.415.112-1.684-.27-1.033.383-.652.379-.333.167-.786.381-.652 1.034-.269 1.414-.921 1.685.112 2.606 1.527 3.908 2.29 3.908 2.29 3.257 1.909 2.606 1.527 3.639 1.257 1.414-.921.225-3.369-.158-2.718.224-3.369.336-5.053.224-3.369 1.145-1.955 2.336.494 3.257 1.909 2.224 2.178.427 3.751.316 5.435-.988 4.672.046 4.402.427 3.75 2.493 3.212 2.606 1.527 2.718-.158.763-1.302.606-4.021-.427-3.751.066-6.087.224-3.368 1.146-1.954 1.684.112 3.908 2.29 2 5.547-.178 7.771-.179 7.772.158 2.717 1.19 2.448 12.377 7.253 1.684.112 1.55-.405 1.658-1.572v-17.594c0-1.011.827-1.839 1.839-1.839zm27.865 78.516h-.708l.354.057.354-.057zm-39.907-35.988 3.02-2.265 4.53-2.265 3.02-1.51h3.775l4.53 2.265 3.02 2.265.755.755v1.51l-1.51 1.51-4.53 3.02-3.021 1.51h-4.529l-3.775-1.51-4.53-2.265-.755-.755v-2.265zm19.275-32.308 3.301 1.832 3.918 3.21 2.612 2.139 1.542 3.446-.218 5.06-.833 3.682-.381.998-1.378.616-1.996-.761-4.606-2.902-2.613-2.14-1.85-4.134-.163-4.063.217-5.06.381-.998 2.067-.925zm35.887.755-3.301 1.832-3.918 3.21-2.612 2.14-1.541 3.445.217 5.06.834 3.682.381.998 1.378.616 1.995-.761 4.607-2.901 2.612-2.14 1.85-4.136.164-4.062-.218-5.06-.38-.998-2.068-.925zm21.848 31.553-3.021-2.265-4.529-2.265-3.02-1.51h-3.775l-4.53 2.265-3.021 2.265-.754.755v1.51l1.51 1.51 4.529 3.02 3.02 1.51h4.531l3.775-1.51 4.53-2.265.755-.755v-2.265zm-56.979 33.22 3.3-1.832 3.918-3.209 2.612-2.14 1.542-3.446-.218-5.06-.833-3.682-.381-.997-1.379-.617-1.995.762-4.606 2.901-2.612 2.14-1.851 4.135-.163 4.062.217 5.061.381.997 2.068.925zm35.887 0-3.302-1.832-3.917-3.209-2.612-2.14-1.542-3.446.217-5.06.834-3.682.381-.997 1.378-.617 1.995.762 4.607 2.901 2.612 2.14 1.851 4.135.163 4.062-.217 5.061-.381.997-2.067.925z"/><path class="fil2 str0" d="m1444.1 336.149-21.517-10.734-15.855-4.53-22.65-4.53-21.895-.755h-20.385l-18.875 2.265-18.875 2.264-18.12 3.775-24.16 6.04-29.445 8.306-33.22 11.325-34.73 13.59-39.26 17.365-37.75 18.12-31.71 15.099-27.18 15.856-24.915 13.59-24.16 13.59-27.935 18.12-49.075 29.445-61.155 38.505-43.79 25.67-87.58 43.035-24.915 10.57-32.465 11.325-36.995 9.06-24.16 4.53-76.255 4.53-94.375-1.51-80.03.755-58.89-5.285-95.13-18.12-64.175-19.63-36.996-11.325-44.544-6.795h-21.14L-5.5 594.36v79.275l405.813 82.13 453-73.99 289.92-135.9 300.867-97.984z"/><path style="fill:#1d2087;stroke:#000;stroke-width:.756;stroke-miterlimit:22.9256" d="m1444.1 392.704-32.087-13.307-30.2-6.04h-14.345l-106.455 12.835-49.075 12.081-40.015 15.099-53.605 20.385-60.4 27.935-45.3 21.14-36.995 19.63-36.24 20.385-39.26 21.141-36.24 20.384-30.2 17.365-31.71 18.121-102.68 40.769-15.855 6.041-20.385 4.529-50.585 10.57-29.445 3.776-51.34 6.039-50.585 4.531-54.36-2.266-30.955-3.02-35.486-4.53-45.299-6.794-40.015-6.795-32.465-6.795-43.035-9.815-31.711-8.306-39.259-10.569-37.75-11.325-7.55-2.265-14.345-4.531-18.875-3.019-14.346.755-15.854 1.51-13.59 1.51-11.703 4.058v122.498l43.413 26.709 25.67 15.855 18.875 11.324 24.915 14.346 17.365 9.815 55.115 28.69 19.63 9.814 40.77 18.876 25.67 11.325 27.935 11.325 29.445 10.57 25.068 9.437H1444.1z"/><path class="fil4 str1" d="M676.963 422.741h1.688l1.03.34a2.075 2.075 0 0 1 1.89.184l2.556 1.656 12.545 6.273 1.296.449 1.234-1.233.822-1.644v-15.621l-1.644-2.467-2.467-1.644-7.399-4.111-7.4-4.111-4.11-4.933v-4.933l.822-1.644h2.466l3.289 1.644 5.755 3.289 3.289 2.466 4.11 1.645h1.645l1.644-2.467v-3.288l-1.644-4.111-3.289-2.467-4.111-2.466-4.933-1.644-4.933-3.289-3.288-2.466-.822-3.289v-4.111l.822-2.466h2.466l3.289 1.644 4.933 2.467 3.288 1.644 2.467 1.644 3.289 1.644 1.644-.821.822-4.111v-20.554l.822-1.645 1.644-.822.823-.822h.822l.522.174.83-.277h.822l.822.822 1.645.822.822 1.645v20.553l.822 4.112 1.645.821 3.288-1.644 2.466-1.644 3.289-1.645 4.933-2.466 3.289-1.644h2.466l.822 2.466v4.111l-.822 3.289-3.289 2.466-4.932 3.289-4.933 1.644-4.111 2.467-3.289 2.466-1.644 4.111v3.289l1.644 2.466h1.645l4.111-1.644 3.288-2.466 5.755-3.289 3.289-1.645h2.466l.822 1.645v4.933l-4.111 4.933-7.399 4.11-7.399 4.111-2.467 1.644-1.644 2.467v15.621l.822 1.644 1.233 1.233 1.297-.449-2.392 1.435 13.828-7.398 4.427-2.118 3.752-.269c1.1-.08 2.004.901 2.004 2.002v18.828l2.274 1.101 1.696.408 1.831-.157 13.324-8.153 1.246-2.69.115-2.962-.355-8.457-.355-8.457 2.062-6.081 4.208-2.575 1.831-.157 1.288 2.104.313 3.663.199 6.626-.388 4.092.743 4.365.859 1.403 2.962.115 2.805-1.716 2.648-3.549.388-4.092-.042-4.794-1.172-5.066.231-5.924.387-4.093 2.376-2.417 3.506-2.146 2.534-.586 1.287 2.104.314 3.663.471 5.495.314 3.664-.116 2.962.314 3.663 1.559.974 3.936-1.444 2.805-1.717 3.506-2.145 4.209-2.575 4.207-2.575 2.805-1.716 1.832-.157 1.559.974 1.131.272.429.701.124.536.67.564.429.701-.273 1.131.157 1.831-.973 1.56-2.805 1.716-4.208 2.575-4.208 2.574-3.506 2.146-2.805 1.716-3.078 2.847.158 1.832 3.118 1.947 2.69 1.246 3.119 1.947 4.679 2.92 3.119 1.947 1.287 2.104-1.675 1.989-3.506 2.145-3.234 1.015-3.821-1.518-5.38-2.491-3.977-3.35-4.249-2.219-3.821-1.518-4.364.743-2.805 1.717-1.246 2.69.858 1.402 3.548 2.649 3.82 1.517 5.81 3.193 3.118 1.947 1.287 2.104-.973 1.559-4.208 2.575-6.353-.932-7.368-4.166-7.369-4.166-2.69-1.246-2.962-.115-13.325 8.153-.973 1.56-.408 1.695 1.06.871-3.936-2.055 19.634 12.429c.931.589 1.123 1.888.492 2.79l-.969 1.382-2.787 2.077-14.325 7.757-1.169 2.219.53 1.662 1.083 1.485 13.877 7.171 2.947-.328 2.592-1.436 7.05-4.686 7.049-4.687 6.269-1.387 4.383 2.265 1.083 1.485-1.132 2.191-2.971 2.167-5.564 3.603-3.7 1.789-3.349 2.897-.755 1.461 1.437 2.593 2.922 1.51 4.406.426 3.701-1.789 4.079-2.519 3.725-3.628 5.186-2.873 3.701-1.789 3.299.78 3.653 1.887 1.813 1.863-1.132 2.191-2.971 2.166-4.455 3.25-2.971 2.167-2.594 1.436-2.97 2.167-.025 1.838 3.275 2.618 2.922 1.51 3.651 1.887 4.383 2.265 4.382 2.264 2.922 1.51 1.083 1.486-.024 1.838.353 1.108-.378.73-.394.384-.135.865-.378.73-1.108.353-1.485 1.084-1.838-.025-2.922-1.51-4.382-2.265-4.383-2.264-3.651-1.887-2.922-1.51-4.029-1.157-1.485 1.083-.05 3.677.329 2.945-.049 3.678-.074 5.514-.049 3.677-1.132 2.191-2.569-.403-3.652-1.887-2.544-2.24-.682-4.054-.656-5.892.804-5.138-.304-4.784-.681-4.053-2.898-3.348-2.921-1.51-2.947.328-.754 1.461-.427 4.407.681 4.054.28 6.622-.049 3.677-1.132 2.191-1.838-.025-4.383-2.265-2.495-5.916-.255-8.461-.255-8.461-.328-2.946-1.437-2.593-13.877-7.171-1.838-.025-1.662.529-.078.542v19.866a2.01 2.01 0 0 1-2.003 2.004h-1.689l-3.299-1.093-1.102-.551a2.07 2.07 0 0 1-1.07-.368l-.834-.584-11.943-5.971-.182-.061-1.276 1.233-.851 1.644v15.621l1.702 2.467 2.552 1.644 7.657 4.111 7.657 4.11 4.254 4.933v4.933l-.85 1.645h-2.553l-3.403-1.645-5.956-3.288-3.403-2.467-4.254-1.644h-1.701l-1.702 2.466v3.289l1.702 4.111 3.403 2.467 4.254 2.466 5.104 1.644 5.105 3.289 3.404 2.466.85 3.289v4.111l-.85 2.466h-2.553l-3.403-1.644-5.105-2.467-3.403-1.644-2.553-1.644-3.403-1.644-1.701.821-.851 4.111v20.554l-.851 1.645-1.701.822-.851.822h-.851l-.86-.277-.539.174h-.851l-.851-.822-1.701-.822-.851-1.645v-20.553l-.851-4.111-1.702-.822-3.403 1.644-2.552 1.644-3.403 1.645-5.105 2.466-3.403 1.644h-2.553l-.85-2.466v-4.111l.85-3.289 3.404-2.466 5.104-3.289 5.105-1.644 4.254-2.466 3.403-2.467 1.702-4.111v-3.288l-1.702-2.467h-1.701l-4.255 1.645-3.403 2.466-5.955 3.289-3.403 1.644h-2.553l-.85-1.644v-4.933l4.254-4.933 7.657-4.111 7.657-4.111 2.552-1.644 1.702-2.467v-15.621l-.851-1.644-1.276-1.234-1.342.45 3.198-1.854h-.517l-14.482 7.748-4.428 2.117-3.752.271c-1.099.079-2.003-.902-2.003-2.004V494.51l-.539-.127-1.831.167-13.278 8.229-1.23 2.697-.099 2.963.404 8.455.404 8.455-2.028 6.093-4.193 2.598-1.83.168-1.3-2.097-.334-3.661-.237-6.625.364-4.094-.768-4.36-.866-1.398-2.963-.098-2.795 1.732-2.628 3.563-.364 4.095.069 4.793 1.201 5.059-.196 5.926-.365 4.095-2.362 2.431-3.494 2.165-2.53.601-1.299-2.097-.335-3.661-.502-5.493-.334-3.661.098-2.963-.335-3.661-1.565-.965-3.928 1.467-2.795 1.732-3.494 2.165-4.193 2.599-4.193 2.599-2.795 1.732-1.831.167-1.565-.964-1.132-.266-.433-.698-.127-.536-.673-.56-.433-.699.266-1.131-.168-1.831.965-1.565 2.795-1.733 4.193-2.598 4.193-2.599 3.494-2.165 2.796-1.733 3.061-2.864-.168-1.831-3.129-1.929-2.698-1.231-3.13-1.929-4.695-2.893-3.13-1.929-1.299-2.097 1.664-1.998 3.493-2.166 3.229-1.033 3.829 1.496 5.394 2.461 3.996 3.326 4.262 2.195 3.829 1.496 4.36-.767 2.796-1.733 1.23-2.697-.866-1.398-3.564-2.628-3.828-1.496-5.828-3.159-3.129-1.929-1.3-2.097.965-1.565 4.193-2.598 6.358.895 7.392 4.124 7.392 4.124 2.697 1.23 2.963.099 13.278-8.229.965-1.565.189-.81-.23-.242-20.464-10.562c-.979-.505-1.191-1.845-.592-2.77l.919-1.417 2.71-2.175 14.233-8.38-1.142-.182 1.043-.891-.441-1.687-1.003-1.541-13.477-7.898-2.96.172-2.665 1.296-7.288 4.306-7.288 4.306-6.334 1.052-4.256-2.494-1.003-1.54 1.247-2.129 3.081-2.005 5.747-3.303 3.791-1.59 3.497-2.716.831-1.418-1.296-2.666-2.838-1.663-4.378-.66-3.79 1.591-4.207 2.299-3.913 3.425-5.331 2.593-3.791 1.591-3.253-.954-3.546-2.078-1.713-1.956 1.247-2.128 3.082-2.006 4.622-3.009 3.081-2.006 2.666-1.297 3.081-2.006.122-1.834-3.131-2.788-2.837-1.663-3.547-2.078-4.256-2.494-4.256-2.494-2.837-1.663-1.003-1.541.121-1.834-.293-1.125.415-.709.414-.363.182-.856.415-.709 1.125-.294 1.541-1.003 1.834.122 2.838 1.663 4.256 2.494 4.256 2.494 3.546 2.078 2.838 1.663 3.962 1.369 1.541-1.003.244-3.669-.172-2.959.244-3.669.366-5.503.244-3.668 1.247-2.129 2.544.538 3.546 2.078 2.422 2.372.466 4.085.343 5.918-1.075 5.088.049 4.794.466 4.084 2.715 3.497 2.837 1.663 2.96-.172.831-1.418.66-4.379-.466-4.084.073-6.628.244-3.669 1.247-2.128 1.834.122 4.256 2.494 2.178 6.041-.195 8.462-.194 8.463.172 2.959 1.296 2.666 13.478 7.897 1.834.123 1.688-.441 1.805-1.712v-19.159c0-1.101.901-2.002 2.003-2.002zm30.343 85.5h-.771l.386.062.385-.062zm-43.457-39.19 3.289-2.466 4.933-2.467 3.288-1.644h4.111l4.933 2.467 3.289 2.466.822.822v1.645l-1.644 1.644-4.933 3.289-3.289 1.644h-4.933l-4.111-1.644-4.933-2.467-.822-.822v-2.467zm20.99-35.181 3.595 1.995 4.266 3.494 2.845 2.331 1.678 3.752-.237 5.51-.907 4.009-.415 1.087-1.501.671-2.172-.829-5.017-3.159-2.844-2.331-2.015-4.502-.178-4.424.236-5.51.415-1.087 2.251-1.007zm39.08.822-3.595 1.995-4.266 3.495-2.845 2.33-1.679 3.752.237 5.51.908 4.01.415 1.086 1.501.672 2.172-.83 5.017-3.159 2.844-2.33 2.015-4.503.178-4.424-.237-5.51-.414-1.087-2.251-1.007zm23.79 34.359-3.289-2.466-4.933-2.467-3.288-1.644h-4.111l-4.933 2.467-3.289 2.466-.822.822v1.645l1.645 1.644 4.933 3.289 3.288 1.644h4.933l4.111-1.644 4.933-2.467.822-.822v-2.467zm-62.048 36.175 3.595-1.994 4.267-3.495 2.844-2.33 1.678-3.753-.236-5.51-.908-4.009-.415-1.086-1.501-.672-2.172.829-5.017 3.16-2.844 2.33-2.015 4.503-.178 4.423.237 5.511.414 1.086 2.251 1.007zm39.08 0-3.595-1.994-4.266-3.495-2.844-2.33-1.679-3.753.236-5.51.908-4.009.415-1.086 1.501-.672 2.172.829 5.017 3.16 2.844 2.33 2.015 4.503.178 4.423-.236 5.511-.415 1.086-2.251 1.007z"/><path d="m-5.5 618.627 8.682-10.465h-.754l-1.51-.755-.755-.754-.756-.755-.754-.756-.755-.755v-3.774l.755-.755v-1.51l-.755-.756-.755-.754h-2.265l-.378-3.702 1.888-2.338 3.775-3.775 3.775-3.775 3.02-3.02 3.775-3.776 3.02-2.265 2.265-2.265 1.51-.755v-.754l-1.51-.755-.756-.756-.754-.755-.755-.754-.756-.755-.754-.755v-3.021l.754-.754v-.756l-.754-.754-.755-1.511-.755-.755v-1.509l.755-.755 2.265-2.266 2.265-1.509 2.265-1.51 2.265-1.511.755-.754.755-.756-.755-.754-1.51-.756v-1.509l.755-1.51 1.51-2.265 1.51-1.51 1.51-1.511.754-.754v-.756l-.754-.755-.755-.755v-1.509l3.02-1.511 2.265-2.264 5.285-4.531 2.265-3.02v-1.509l-1.511 1.509-1.509 1.511-3.776 3.019h-.754l-.755-.754.755-1.51.754-1.511.756-2.264v-3.775l-.756-.755-2.264-.756-2.266-.754-1.509-1.511-1.511-.754-.754-.756.754-.754h1.511l2.264-.756 3.021-.755 2.265-.755.755-1.509 1.51-2.265.755-1.51 1.51-2.265h1.51l1.509 3.775 2.266 3.774 2.265 1.51 3.02.756H51.503l.755.754-.755 1.51-1.51 1.511-2.265.754-2.266.756 1.511 1.509 2.264 2.266 1.511 2.264.755 1.511.755 1.509H48.483l-3.021-.754-2.264-1.511-3.02-2.264v1.509l3.02 3.776 9.06 9.059 1.51 1.51v1.51l-1.51 1.511-.755.754v.756l.755.754 1.51 1.511 1.509 1.51.756 1.509v.756l-.756.754-1.509.756-.756.754-.754.755 3.019 2.266 6.041 6.039 7.55 6.795.755.756.755 1.51v1.509l-.755.756-.755.755-.755.754-.755.755-.756.755H61.318l.754 1.51 3.021 6.796 8.305 12.08 5.285 5.285 1.51 1.51v2.265l-.755.755-1.51.755-.755 1.509v2.265l-.755.755-.756 1.511-1.509.755h-1.51l-.756.754-.754.756.754 1.51 2.266 2.265 3.775 2.264 9.815 6.04h.755l.754.756v1.509l-1.509 1.51-.755.756-1.511 1.51h-.754v1.509l.754 2.265 1.511 2.266.755 1.509-.755.756-.755.755v.755l2.265.754 3.019.755 3.021.756 4.529 1.509 3.775 1.51 6.041 2.265 6.794 2.266 6.04 2.265 5.286 2.264 4.529 2.266 4.531 2.264 5.285 2.266 4.53 2.265 4.53 2.265 4.53 2.264 4.53 2.265 5.285 3.021 5.285 3.02 5.284 3.02 4.531 3.02 3.775 2.264 3.775 2.266 2.265 1.51 1.51.754h2.265l4.529-.754 3.775-.756 3.776-.754 3.775-.755 3.775-.756 3.775-.755 3.775-.755 5.285-.754 6.04-.755 4.53-.756h8.305l6.04.756 4.53.755 5.285 1.509 2.265.755 2.264.756 3.776 1.509 3.775 1.51 2.265 1.51 3.02 1.511 3.02 1.51 3.775 2.265 4.53 2.264 3.775 2.265 3.02 1.511 4.53 3.02 4.53 2.265 4.53 3.019 5.285 2.266 3.775 1.509 4.53 1.511 3.775 1.51 2.265.754 2.265.756 3.02.755h.755l.755-.755-2.265-1.51-1.51-1.51-2.265-2.265v-2.265l-.755-2.265.755-1.51 1.51-2.265 3.02-3.775 4.53-5.285 3.775-4.531 3.775-3.775 3.775-4.529 3.02-3.775 3.775-4.53 3.019-3.021 2.266-3.019 2.265-3.02 2.265-2.265 2.265-3.021 2.265-1.51 1.51-1.509v-1.51l-2.265-.756-3.02-2.264-3.02-2.266-2.265-3.02-1.51-2.265-1.51-2.264-.755-3.02v-4.531c0-.754.755-2.264.755-2.264l.754-2.265.756-1.51.755-.755v-1.51l-.755-.756-1.51-.754-1.51-1.511-.755-1.51h-3.02l-.755.756h-1.51l-2.265.754h-3.02l-.755-.754-.755-.756-.755-1.509v-1.51l.755-1.511 1.51-2.264.755-1.511 2.265-2.264 1.51-3.021 2.265-2.264 2.265-3.02 2.265-2.266 3.775-4.529 3.02-3.021 3.775-3.775 3.02-3.019 3.02-3.021 3.02-3.019 3.02-2.266 2.265-3.019 3.775-3.021 3.02-3.019 3.02-3.02 1.51-.755 2.265-2.265 2.265-2.266 3.02-3.02 3.02-2.264 2.265-2.266s.755-1.509 1.51-1.509 2.265-1.51 2.265-1.51l1.51-1.511 1.51-.754s.755 0 .755-.756v-3.019l-1.51-.755s-2.265 0-2.265-.755c0-.756-2.265-2.265-2.265-2.265l-2.265-2.266-2.265-2.265-1.51-3.019-1.51-3.02v-5.286l.755-3.02.755-1.509.755-1.511-.755-1.51-2.265-1.509-1.51-1.51-.755-1.511-.755-1.51-.755-2.265v-3.02l3.02-2.265 2.265-2.265 3.775-3.775 3.02-2.265 3.02-2.264 2.265-2.265h.755v-1.51l.755-.756.755-.755 1.51-.754 1.51-.756v-.755l-1.51-1.509-2.265-.755-1.51-.756-.755-.755.755-1.509.755-.755h1.51l2.265 1.509 2.265 1.51v-.755l.755-.755v-3.775l.755-.755 1.51.755.755.755V482.077l.755.755.755-.755 2.265-2.264.755-.756v-1.51l-1.51-.755-4.53-2.264-.755-1.511v-2.264l1.51-3.021 2.265-3.775 2.265-3.019 3.02-3.775 2.265-2.265 2.265-2.266 2.265-2.265.755-1.51v-1.509l-1.51-2.266-.755-1.509v-3.021l1.51-3.02 3.775-3.775 3.775-3.019 3.775-2.265 3.775-2.266 3.02-2.265 3.02-3.019 5.285-5.286 2.265-3.02 2.265-3.775 2.265-3.775 1.51-2.265 1.51-3.02.755-2.265h-1.51l-1.51 3.02-6.795 6.04-3.775 3.775-6.04 4.531-4.53 3.775-1.51.754h-.755c-.755 0-.755-.754-.755-.754v-1.51l2.265-4.531 2.265-4.529.755-3.776.755-3.775.755-3.775 1.51-3.775.755-2.265-.755-1.51-3.02-.754-4.53-2.266-11.325-5.284-5.285-3.776-3.775-3.02 1.51-.755 9.815-1.509 6.794-1.511 6.041-2.265 4.53-1.51 3.02-4.529 2.265-3.775 2.265-3.776 3.02-4.53 2.265-3.775 1.51-1.509h.755l3.02 3.775 3.02 7.549 4.53 6.795 4.53 6.795 5.285 1.511 4.53.755 7.55 1.509 5.285.755 3.02.756-2.265 4.529-4.53 3.775-6.795 3.02-2.265 1.51 4.53 6.04 6.04 8.305 7.55 11.325-.755.755-10.57-1.51-4.53-1.509-6.04-2.266-6.795-3.775-6.795-6.04 1.51 5.285 3.775 7.55 2.265 3.021 12.08 13.59 12.08 10.569 9.06 9.061v1.509l-.755 1.511-7.55 6.795 2.265 2.264 9.815 12.08 1.51 1.51.755 3.02-.755 1.51-1.51 1.511-.755 1.509-2.265.755-.755.755-1.51.756-1.51.755h-2.265l2.265 3.774 27.935 27.18 15.855 13.59 5.285 5.286 2.265 1.509v3.02l-.755 3.02-3.775 3.775-3.775 3.021s-3.02 2.265-3.775 2.265c-.755 0-1.51.754-1.51.754l-3.775.756H541.498l.755 3.775 6.795 17.365 28.69 39.259 18.875 20.386 1.51 3.02-1.51 2.265-6.04 3.775-3.02 2.264.755 6.04-1.51 4.53-2.265 3.02-1.51 3.775-6.04 1.511-4.53.754-3.02 1.511 5.285 7.55 24.16 18.119 20.385 11.325 3.02.756.755 2.265v3.02l-5.285 4.53-5.285 3.775-3.02 1.51-1.51.755 3.775 9.815 3.02 5.284 2.265 6.04v3.021l.755.754 14.345-.754 37.75-4.531-2.265-3.019V732.738l6.04-10.57s-.756-.756-1.51-.756c-.755 0-3.775-2.264-3.775-2.264l-3.02-3.021c-.755-.754-.755-1.509-.755-2.265 0-.754.755-1.509.755-1.509l11.325-6.04 10.57-7.551 7.55-6.039v-1.511l-.755-.755s-2.265-.754-3.02-.754c-.755 0-2.265-.756-2.265-.756s-1.51-2.264-2.265-2.264c-.755 0-.755-.755-.755-1.511 0-.755-.755-3.019-.755-3.019v-3.775l-.755-.756c-.755-.754-1.51 0-2.265-.754l-2.265-2.265.755-3.021 3.02-3.775 3.775-3.775 3.02-3.775 5.285-8.304 4.53-6.04 6.04-7.55 3.02-5.285.755-3.02 1.51-2.266v-2.264l-3.775-.755h-3.775l-4.53-3.021s-2.265-2.264-2.265-3.02c0-.755-.755-3.019-.755-3.019l4.53-4.531c.755-.754 6.795-6.04 6.795-6.04l6.04-6.04 6.795-6.794 4.53-4.531.755-1.51s0-1.509-.755-1.509-1.51-1.51-2.265-1.51c-.755 0-.755-.756-1.51-1.511-.755-.754-.755-1.509-.755-1.509s1.51-1.511 2.265-3.02c.755-1.51 2.265-2.266 3.02-3.021.755-.754 1.51-2.265 1.51-2.265l1.51-1.509-.755-1.511s-1.51-1.509-2.265-1.509c-.755 0-1.51-.755-1.51-.755l-.755-1.511 2.265-3.019 5.285-3.776 9.06-9.06s3.775-4.529 4.53-5.284c.755-.755 1.51-3.776 1.51-3.776l.755-3.019-5.285 4.529-3.775 1.511-3.775 1.51h-8.305l3.02-3.775 3.02-3.021s1.51-2.264 2.265-3.02c.755-.754 2.265-1.509 2.265-2.265 0-.755 1.51-2.264 1.51-2.264l-3.02-.755-3.02-1.511-2.265-1.51-.755-1.51-1.51-2.265 2.265-1.51 4.53-.754s3.02.754 3.775 0c.755-.755 3.775-.755 3.775-.755l2.265-1.511 3.02-3.774 1.51-3.021s1.51-2.265 1.51-3.02c0-.755.755-1.509.755-2.265 0-.755 1.51-1.509 1.51-1.509s3.02 2.265 3.775 3.019c.755.755 3.02 5.285 3.02 5.285l1.51 1.511 3.02 1.51s.755 2.264 2.265 2.264c1.51 0 3.02 1.511 3.02 1.511l4.53 1.509 3.02.755v2.266l-3.02 1.51c-1.51.754-6.04 3.775-6.04 3.775l-4.53 2.264-.755 2.266.755 3.02s.755 1.51.755 2.265c0 .754.755 2.264.755 2.264s2.265 1.511 3.02 2.266c.755.755.755 1.509 1.51 2.264.755.756 1.51 2.266 1.51 2.266v.754l-6.04-2.264-4.53-3.02-6.04-6.041-3.02-3.02-.755 1.51 2.265 3.775 4.53 6.04 4.53 4.531 7.55 4.529 3.02 3.02.755 2.266v1.51l-.755 1.51v1.509l3.775 4.531 3.02 3.019 2.265 3.775v3.776l-1.51 1.509-3.02.755 3.775 2.266s5.285 4.529 6.04 5.284c.755.756 5.285 4.53 5.285 4.53l4.53 3.776v2.265l-.755 2.265-1.51 2.264-1.51.756v1.509l1.51 1.51V613.448l-2.265 3.02-1.51 2.264-3.775 1.511-2.265.755 25.67 23.404 9.06 9.815 6.04 7.55 1.51 3.021-1.51 2.265-2.265-.756h-3.02l-2.265 1.51v3.02l1.51 3.02v2.266l-.755 3.02-2.265 2.264-2.265 2.265-2.265 1.51h-1.51l6.795 7.551 3.775 5.284 3.775 3.776 3.02 3.775h2.265l8.305-3.021 6.04-1.509 5.285-1.51 12.08-3.775 15.1-5.286 11.325-3.774 9.815-3.021 30.2-10.569 9.06-4.53 9.815-6.041 9.06-6.039 9.815-8.305 6.795-4.531 5.285-3.774 4.53-2.266 4.53-3.019 3.775-.756 3.775-1.509h3.02v-3.02l2.265-2.265 2.265-2.265-1.51-.756-1.51-2.265v-1.509l2.265-1.511 8.305-9.059 3.02-3.775 2.265-3.02-.755-1.511-2.265-.754-1.51-2.265-.755-2.265.755-2.266s.755-.754.755-1.509c0-.756.755-.756.755-1.51 0-.756-1.51-1.51-1.51-1.51l-1.51-.755-1.51.755-.755.754h-1.51v-3.775l3.02-4.53 11.325-11.324 4.53-3.02 3.02-3.021 3.02-2.264 1.51-.756-3.02-3.02-1.51-1.509s-.755-.755-.755-1.511c0-.755-.755-1.509-.755-3.019 0-1.51-.755 0 0-1.51l.755-1.511-1.51-1.51s0-2.265.755-3.019l3.02-3.021 3.02-3.02 3.02-1.509 2.265-2.266-3.02-.754v-2.266l2.265-3.775 2.265-2.264 2.265-2.265-2.265-2.266 1.51-1.509 2.265-2.266s.755 0 1.51-.754c.755-.755 1.51-.755 2.265-1.511.755-.754 1.51-.754 2.265-1.51.755-.755 2.265-1.509 2.265-2.265 0-.754.756-2.265 1.51-3.02.755-.755 0-2.265.755-2.265s.755-1.509.755-1.509l3.02.754s.755 3.775 1.51 3.775.755.755 1.51 1.511c.755.754 0 .754 1.51 2.264 1.51 1.511 1.51 2.265 3.02 3.021 1.51.755 1.51 1.509 2.265 2.264l1.51 1.511c1.51 1.509 0 .755 1.51 1.509 1.51.755.755-.755 1.51.755.755 1.511.755 1.511.755 2.266 0 .754-.755 3.02-.755 3.02l-2.265.754.755.755c.755.756.755 2.266 1.51 2.266s0-.756 1.51.754c1.51 1.511 1.51 2.266 1.51 2.266s1.51-.001-.755 1.509c-2.265 1.511-3.775 1.511-4.53 2.265-.755.755 4.53 2.265 4.53 2.265l4.53 6.04 3.02 3.02.755.755 2.265 2.266 2.265.755 1.51 1.509 1.51 1.511V560.598l-1.51.754-1.51.756-1.51.754-2.265.756-1.51-.756s-.755.756-1.51.756.755 4.529.755 4.529 2.265 2.265 3.02 3.775c.755 1.511 2.265 4.53 3.775 5.286 1.51.754 3.02 1.509 3.02 2.265 0 .755.755 2.264 1.51 3.775.755 1.51 3.02 3.019 3.02 3.775 0 .754 3.02 2.264 3.02 3.019 0 .756 0 .756.755 1.51.755.756 1.51-.754 1.51 1.511 0 2.264.755 3.02.755 3.02l-2.265 1.509-1.51.756h-1.51l.755 2.265v1.51l-1.51 1.51s.755 0-.755.754c-1.51.755-2.265 0-2.265.755 0 .756-1.51 0-1.51.756 0 .755 1.51 3.019 1.51 3.019l3.775 3.021s2.265.754 3.02.754c.755 0 3.021-2.264 3.775-2.264.755 0 3.775-3.021 4.53-3.021.755 0 9.815-6.794 9.815-6.794l14.345-9.061 10.57-6.04 12.08-6.795 10.57-5.284 12.08-6.04 6.04-3.775 7.55-3.02 7.55-3.021 8.305-3.775 6.795-2.265 2.265-.754 3.02-3.021 6.04-4.529 4.53-2.265 3.775-2.266 3.775-2.265 3.02-1.51 1.51-.754s1.51 0 1.51-.755v-2.265c0-.755-.755-2.266-.755-2.266l-1.51-13.59-2.265-15.855-.755-6.795s-.755-3.775-.755-4.53v-2.265h-2.265l-2.265 1.511s-2.265.754-3.02.754c-.755 0-3.02.755-3.02.755l-6.795-1.509-3.02-2.266-3.02-2.265-2.265-3.775-2.265-3.019s-1.51-2.266-1.51-3.021c0-.755-.755-1.51-.755-2.264 0-.756.755-2.266.755-3.021 0-.754 2.265-3.019 2.265-3.019l1.51-2.266 2.265-2.265 3.02-2.264 3.02-2.266 2.265-2.264 3.775-3.021 3.775-3.019 3.775-3.775 2.265-4.531 3.775-5.285 3.02-4.53 3.02-4.529 3.02-5.286 3.775-5.285 5.285-8.305 3.02-5.285 4.53-7.55 4.53-7.55 2.265-4.529 2.265-3.776 3.02-2.264 3.775-3.02 5.285-2.266 6.04-1.51h3.775l5.285-.754h12.08l7.55.754 6.04.755 4.53.755s1.51 1.511 2.265 1.511c.755 0 1.51.755 2.265.755.755 0 1.51-.755 1.51-.755s.755-2.266 0-2.266-.755-2.265-.755-2.265H1326.698l-.755-6.04-.755-10.57v-5.284l44.545-3.776 1.51 23.405-9.06.755.755 9.816 5.285 2.264h2.265l2.265.755 2.265.756 2.265 1.509 3.02 2.265 2.265 2.266 3.775 3.775 3.02 3.774 3.02 3.775 3.02 5.285 3.775 7.55 4.53 7.55 3.775 7.55 3.775 6.04 3.775 6.04 2.265 4.53 4.53 4.53 3.775 3.775 3.02 2.266 3.02 3.775s1.51 2.265 2.265 3.02c.755.754 2.265 3.02 2.265 3.02l1.51 3.019v5.285c0 .755-1.51 3.02-1.51 3.02s-1.51 2.266-1.51 3.02c0 .756-1.51 2.265-1.51 2.265l-3.02 1.51-4.53 1.511-3.02.754h-7.55l-3.02-1.509-3.02-.756v12.835c0 .755-1.51 34.73-1.51 34.73l6.795.756h5.285l6.795.754 5.285.755 6.04 2.266 3.775 3.774s.755 2.266.755 3.02c0 .755.755 3.021.755 3.021v173.65l-.025 95.104-18.85-12.81-19.63-9.815-21.14-7.55-29.751-7.999-35.389-9.277-48.11-5.374-46.81-1.51-30.2 3.02-30.321 3.127-28.569 5.933-73.256 16.161-58.869 15.549-67.325 22.471-56.495 22.074-56.23 23.488-31.74 9.635-32.83 7.647-35.09 3.858-58.53 4.447-64.175 2.265-39.26-1.51-38.812-2.042-44.993-4.753-50.892-9.593-48.768-10.792-46.81-13.59-70.215-22.65-48.164-19.265-65.086-31.32-43.79-21.895-43.79-21.14-36.995-16.61-27.558-10.16v-91.115zm1449.6 114.53-20.762-12.122-19.63-8.305-16.61-6.04-17.365-3.775-25.67-4.53-26.425-3.02-15.855-.755-15.1.755-26.425.755-18.12 1.51-16.61 1.51-27.18 4.53-24.16 3.775-21.895 4.53-24.16 6.04-32.465 7.55-39.26 12.08-30.2 9.06-27.18 9.06-41.525 15.1-69.46 26.425-77.765 30.2-22.65 8.305-12.835 3.775-16.61 3.775-11.325 3.02-21.14 4.53-19.63 3.02-30.2 5.285-31.71 2.265-23.405 1.51h-27.18l-35.485-.755-24.16-1.51-22.65-2.265-21.895-3.02-12.835-1.51-21.14-3.775-26.425-4.53-24.915-5.285-29.445-6.795-12.835-3.02-18.875-5.285-19.63-6.04-17.365-4.53-18.875-6.04-39.261-14.345-17.364-6.04-25.67-9.815-29.446-12.08-46.809-21.14-27.935-12.835-8.305-4.53-9.815-4.53-9.815-4.53-13.591-6.04-10.569-4.53-10.57-3.775-10.57-3.775-12.835-4.53-11.326-3.775-5.284-1.51H-5.5v5.421l1.888.619 12.08 3.775 6.04 2.265 6.04 1.51 12.835 5.285 6.795 2.265 8.305 3.775 9.815 3.775 8.304 3.775 12.081 6.04 12.08 5.285 12.079 6.04 10.571 4.53 9.06 4.53 6.794 3.02 42.28 18.875 15.101 6.04 10.57 4.53 4.529 1.51 5.286 2.265 3.775 1.51 3.775 1.51 4.53 1.51 5.284 2.265 5.286 2.265 5.285 1.51 5.285 2.265 4.53 1.51 3.775 1.51 30.2 11.325 14.345 4.53 6.04 2.265 6.04 2.265 11.325 3.775 10.57 3.775 12.08 3.775 21.895 6.795 15.855 3.775 13.59 3.019 11.325 3.021 9.815 2.265 9.06 1.51 16.61 3.02 36.24 6.795 15.855 2.265 23.405 3.775 26.425 3.02 26.425 1.51 19.63.755h25.67l23.405-.755 23.405-.755 25.67-2.265 25.67-3.775 18.12-3.02 12.08-2.265 15.855-4.53 3.02-.755 23.405-6.04 23.405-7.55 30.2-11.325 18.875-7.55 24.915-9.815 27.18-10.57 16.61-6.795 18.12-6.795 17.365-6.795 45.3-15.855 18.875-6.04 22.65-6.795 18.875-5.285 21.14-6.795 21.895-6.04 20.385-4.53 38.505-8.305 21.895-4.53 19.63-3.775 13.59-1.51 21.14-2.265 20.385-1.51 13.59-.755h14.345l12.835-.755 12.835.755 11.325.755 17.365 2.265 9.06 1.51 9.06 1.51 9.815 2.265 9.815 3.02 8.305 2.265 7.55 3.02 4.53 1.51 8.305 3.02 8.305 3.775 6.795 3.774 7.55 3.776 10.192 6.174v-15.192zM1248.513 527.02l8.305.755 4.53-.755 5.285-1.51 5.285-1.51 6.04-.755-3.02-40.015 24.915-1.51 3.02 41.525 16.61-1.51h13.59l-4.53-55.87-36.24-21.14-3.775-.755-3.775.755-4.53 3.02-7.55 9.06-3.775 3.775-6.04 3.775-7.55 6.795-8.305 6.795-5.285 4.53 2.265 16.61 4.53 27.935zm95.173-6.061 16.609 2.266 14.346.755 11.325 1.51 12.835 3.02 2.265-50.585-9.815-6.04-12.835-9.06-9.815-4.53-6.04-1.511h-6.795l-5.286 1.511-4.529 4.53-3.775 2.265-3.02.755 4.53 55.114zm3.775-48.319.755 18.12 19.63 6.04v-15.95l-20.385-8.21zm30.955 12.552v14.627l14.345 3.775v-13.589l-14.345-4.813zm-36.24-110.986 13.59 1.794-.555-16.731 8.105.121-.755-12.835-30.955 2.264.755 13.591 9.815-1.51v13.306zM459.58 405.445l3.021-10.57-.001-4.531-1.509-3.775-5.941-3.73-13.689-6.084 9.815-2.265 6.795-1.51 4.529-3.775 3.776-6.795 1.509-6.795 3.021-9.06 2.264 11.325 1.511 5.285 3.02 6.04 2.048 2.714 3.73 3.316 5.547 1.52 7.549.754 6.041.756-4.531 3.775-6.04 2.265-4.529.755-1.511.755.755 2.265 3.775 3.775 13.59 15.1-6.04-1.51-10.569-5.285-7.55-5.286-4.531-4.53-3.775 2.266-12.08 12.835zm272.556 135.9 8.304-9.061 1.511-2.264-.755-1.51-2.265-.755h-3.02l-3.02-1.51v-1.51h3.775l5.285-.755 3.775-2.265 1.51-3.02 2.265-2.265 1.51-5.285 1.106-6.081 1.913 6.836 2.266 3.775 3.02 3.02 3.775 2.264 3.02 1.51 6.795 1.511-5.285 2.265-5.285 2.265-2.69 2.689-1.085 4.106 2.265 4.53 3.02 4.53 2.265 1.51-9.061-6.795-4.529-6.04-4.531-.756-2.264 1.511-3.02 2.265-3.775 3.02-3.775 1.51-3.02.755z" style="fill:url(#id0)"/><path d="m-5.34 617.793 7.908-9.345h-.205l-1.617-.808-3.134-3.136v-4.008l.755-.756v-1.275l-1.343-1.342h-2.403l-.121-1.182v-3.257c4.94-6.063 12.913-14.097 19.06-18.708l2.286-2.286 1.396-.697v-.406l-1.396-.697-3.889-3.889v-3.256l.755-.754v-.52l-.701-.702-.755-1.51-.809-.808v-1.747c3.892-3.891 5.15-4.472 9.919-7.654l1.288-1.288-.523-.522-1.624-.812v-1.75c1.947-3.895 2.901-4.467 6.04-7.603v-.52l-1.51-1.51v-1.802l3.134-1.567c2.502-2.503 4.783-4.42 7.513-6.76l2.188-2.917v-.728l-2.532 2.533c-1.283 1.044-2.589 2.069-3.88 3.104h-.969l-.984-.984 1.593-3.187.732-2.197v-3.614l-.626-.626-4.53-1.51-1.525-1.526-1.51-.754-.987-.988 1.041-1.04h1.585c1.904-.634 3.286-1.008 5.259-1.501l2.132-.711c.8-1.599 1.155-2.09 2.225-3.694.841-1.682 1.234-2.231 2.354-3.909h1.855l1.574 3.935 2.219 3.699 2.17 1.447 2.938.734h4.615l.983.983-.869 1.739c-.531.526-1.059 1.056-1.586 1.586l-4.159 1.386c4.177 4.177 4.187 4.144 6.728 9.222h-4.269c-1.034-.259-2.067-.52-3.102-.775a104.724 104.724 0 0 1-4.884-3.471v.843l2.938 3.673 10.652 10.651v1.747l-2.265 2.263v.52l3.722 3.722.808 1.617v.938l-.869.868-1.512.757-1.246 1.245c3.721 2.792 5.266 4.572 8.828 8.135 2.77 2.492 5.707 4.951 8.336 7.58l.808 1.616v1.694l-3.942 3.942h-4.943c1.286 2.573 2.393 5.247 3.562 7.878l8.274 12.034 6.864 6.864v2.501c-.29.29-.583.578-.871.871l-1.468.733-.681 1.363v2.318l-.807.807-.777 1.553-1.656.828h-1.457l-1.282 1.282.64 1.281 2.213 2.213c4.523 2.713 8.998 5.478 13.491 8.243h.792l.923.924v1.744l-3.942 3.943h-.588v1.182l.727 2.18c1.181 1.772 1.459 2.169 2.354 3.96l-1.571 1.571v.432l2.049.683c5.408 1.352 9.186 2.464 14.381 4.542l6.034 2.263c10.462 3.488 17.346 6.407 27.192 11.33 14.459 6.196 30.779 14.724 43.837 23.429 3.317 1.991 6.586 3.888 9.801 6.032l1.431.715h2.18l4.494-.749c11.565-2.314 22.281-4.579 33.996-6.044 15.444-2.573 26.87 1.077 40.937 6.825l2.277 1.518c3.599 1.799 6.373 3.22 9.81 5.282 3.163 1.582 5.294 2.724 8.304 4.53 3.339 1.669 4.225 2.311 7.563 4.537 4.374 2.186 4.922 2.525 9.048 5.277l5.257 2.253 3.77 1.507c2.999 1 5.384 1.852 8.304 3.02l4.494 1.498 2.984.746h.604l.425-.425c-2.768-1.846-3.344-2.677-5.878-5.211v-2.341l-.776-2.329c2.406-4.811 6.424-8.936 9.905-12.998 2.793-3.352 4.5-5.257 7.564-8.321l3.759-4.511c3.275-4.093 6.098-7.611 9.823-11.336 2.571-3.428 3.886-5.396 6.795-8.305l2.279-3.039 2.28-1.52 1.406-1.407v-1.187l-2.114-.705c-2.036-1.527-4.074-3.051-6.108-4.581-1.955-2.591-3.549-4.931-5.347-7.637-.261-1.033-.517-2.069-.775-3.103v-4.564c0-.757.677-2.17.777-2.374.639-1.917.681-2.139 1.541-3.837l.701-.702v-1.273l-.641-.641-1.51-.755-1.57-1.571-.698-1.396h-2.727l-.755.755h-1.586l-2.265.755h-3.179l-1.625-1.624-.809-1.616v-1.64c.859-1.719 1.165-2.145 2.306-3.857l.768-1.535 2.265-2.265 1.509-3.02 2.287-2.286c2.097-2.796 2.152-2.907 4.538-5.293 6.001-7.202 15.201-17.066 22.65-22.652l2.261-3.015 3.782-3.026 6.068-6.068 1.51-.755c3.746-3.747 6.359-6.652 10.55-9.795l2.226-2.226c.13-.25.888-1.623 1.741-1.623.636 0 2.059-1.422 2.063-1.426l1.541-1.541 1.616-.808h.065c.001 0 .469 0 .469-.47v-2.844l-1.291-.646c-.401-.008-2.484-.098-2.484-1.039 0-.608-2.128-2.023-2.134-2.027l-.029-.018c-1.526-1.526-3.06-3.046-4.578-4.579-1.035-2.043-2.046-4.1-3.074-6.146v-5.384c.257-1.027.509-2.057.771-3.082.484-.977.975-1.95 1.462-2.925l-.657-1.314c-2.321-1.547-1.922-1.179-3.787-3.044-1.199-2.398-1.495-2.943-2.319-5.414v-3.204l3.114-2.335c5.207-5.207 6.316-6.247 12.079-10.57l2.34-2.339h.587v-1.343l1.624-1.623 2.906-1.454v-.461l-1.38-1.381c-1.921-.64-2.085-.673-3.791-1.526l-.929-.929.868-1.736.87-.872h1.713l4.159 2.773v-.341l.755-.755v-3.775l.984-.983 1.739.87.868.868v3.775l.47.47 3.489-3.49v-1.217c-1.988-.994-3.976-1.991-5.966-2.982l-.828-1.658v-2.394c2.939-5.906 4.999-8.627 9.142-13.725l6.766-6.767.702-1.403v-1.359c-1.131-1.696-1.412-2.091-2.266-3.797v-3.149c.52-1.043 1.04-2.086 1.564-3.127l3.805-3.805c4.255-3.464 6.483-4.654 11.368-7.585l2.987-2.24 8.285-8.286 2.24-2.986c1.99-3.318 3.887-6.585 6.032-9.801l1.492-2.985.623-1.87h-.94l-1.456 2.912-6.825 6.066c-4.2 4.201-4.743 4.504-9.838 8.325l-4.549 3.791c-.535.262-1.069.533-1.602.801h-.82c-1.041 0-1.041-1.037-1.041-1.04v-1.575l4.543-9.085c1.194-5.97 1.576-9.596 3.783-15.116l.713-2.138-.643-1.287-2.921-.73-4.559-2.279c-11.136-5.197-11.74-5.156-20.784-12.391l1.949-.975 9.858-1.516 6.755-1.501c3.568-1.339 6.866-2.54 10.467-3.741l2.967-4.45c2.522-4.2 4.838-8.012 7.551-12.08l2.278-3.796c.535-.542 1.077-1.079 1.616-1.616h1.008c1.045 1.306 2.086 2.616 3.135 3.918l3.022 7.556 8.987 13.481 5.172 1.478c4.095.683 7.982 1.445 12.068 2.263 3.706.529 5.226.738 8.664 1.599-.818 1.632-1.641 3.264-2.45 4.901a627.771 627.771 0 0 0-4.605 3.837l-6.803 3.023-2.002 1.335c6.427 8.569 12.119 16.689 18.079 25.636l-1.021 1.02c-13.503-1.928-16.318-2.501-28.204-9.13l-6.083-5.407 1.234 4.321 3.749 7.499 2.238 2.984 12.07 13.577c7.932 6.942 13.829 12.32 21.22 19.711v1.693l-.811 1.623-7.365 6.628c4.358 4.358 7.987 9.356 11.871 14.137l1.562 1.561.8 3.198-.825 1.65-1.51 1.51-.786 1.571-2.31.77-.74.739-3.126 1.564h-1.827l1.986 3.311 27.902 27.148c7.476 6.408 14.244 11.978 21.133 18.866l2.366 1.578v3.206l-.783 3.132-3.83 3.83c-1.079.879-2.893 2.133-3.804 3.045-.009.006-3.105 2.324-3.948 2.324-.637 0-1.306.669-1.309.671l-.06.061c-5.42 1.07-7.566.778-13.383.778l.682 3.411 6.772 17.306 28.663 39.222 18.886 20.398 1.603 3.204-1.635 2.452-6.089 3.805-2.872 2.154.743 5.939a763.56 763.56 0 0 0-1.547 4.638l-2.268 3.025-1.551 3.877c-3.963.984-6.724 1.636-10.693 2.297l-2.686 1.344 5.07 7.242 24.109 18.081 20.333 11.296 3.137.785.82 2.461v3.193c-5.68 4.857-8.35 7.238-15.027 10.578l3.672 9.549c3.236 5.662 2.985 5.19 5.315 11.404v2.951l.581.582 14.203-.748 37.257-4.471-2.026-2.702v-3.188l5.963-10.437c-.236-.197-.7-.528-1.148-.528-.843 0-3.939-2.317-3.948-2.324-.801-.613-2.253-2.249-3.049-3.045-.838-.839-.838-1.653-.838-2.467 0-.873.836-1.709.838-1.711l.028-.028 11.346-6.051 10.558-7.542 7.429-5.943v-1.257l-.623-.624c-.358-.117-2.22-.718-2.866-.718-.816 0-2.395-.787-2.399-.79l-.065-.034-.04-.062c-.003-.005-1.418-2.134-2.026-2.134-1.041 0-1.041-.898-1.041-1.796 0-.714-.736-2.92-.737-2.926l-.017-.048v-3.702l-.672-.672c-.293-.293-.612-.294-.931-.294-.436 0-.873 0-1.334-.461l-2.379-2.378.809-3.235c1.023-1.284 2.046-2.573 3.078-3.848l3.775-3.776 2.991-3.737c5.375-8.447 9.618-14.1 15.848-21.887l2.993-5.238.758-3.03 1.488-2.234v-1.945l-3.516-.703h-3.835c-.93-.62-4.049-2.508-4.645-3.104-.007-.006-2.348-2.348-2.348-3.222 0-.714-.737-2.92-.739-2.926l-.058-.169 4.655-4.656c.733-.733 6.466-5.752 6.795-6.04l17.335-17.335.701-1.401c-.008-.249-.063-1.162-.469-1.162-.495 0-.915-.42-1.334-.839-.336-.335-.672-.671-.931-.671-.625 0-.838-.346-1.133-.823-.143-.231-.311-.503-.579-.771-.838-.838-.838-1.709-.838-1.711v-.119l.083-.083c.004-.004 1.48-1.481 2.212-2.945.556-1.112 1.478-1.82 2.25-2.413.318-.243.609-.467.823-.681.721-.721 1.459-2.194 1.461-2.199l.022-.04 1.393-1.392-.641-1.281c-.207-.204-1.45-1.397-2.033-1.397-.873 0-1.709-.836-1.712-.839l-.03-.03-.856-1.711c.798-1.067 1.596-2.134 2.398-3.197l5.297-3.784 9.038-9.039c.209-.251 3.797-4.552 4.538-5.292.684-.684 1.408-3.533 1.436-3.643l.538-2.153-4.643 3.98c-2.552 1.007-5.098 2.039-7.646 3.058h-8.949c1.135-1.42 2.263-2.848 3.408-4.26l3.005-3.006c.181-.271 1.561-2.316 2.281-3.036.261-.261.608-.521.954-.781.613-.46 1.228-.92 1.228-1.283 0-.614.787-1.584 1.255-2.106l-2.576-.644c-2.634-1.329-3.042-1.517-5.409-3.095l-.777-1.553-1.663-2.495c.85-.568 1.699-1.139 2.553-1.702 1.548-.264 3.101-.522 4.651-.775l.058.015c.008.002 2.857.718 3.501.074.756-.756 3.377-.831 3.889-.838l2.162-1.441 2.97-3.712c.443-.887 1.014-2.226 1.513-3.023.003-.005 1.463-2.199 1.463-2.865 0-.441.204-.851.408-1.258.172-.348.347-.696.347-1.007 0-.936 1.657-1.758 1.661-1.76l.162-.087.145.111c.008.006 3.029 2.272 3.803 3.045.742.742 2.815 4.845 3.051 5.315l1.449 1.45 3.08 1.539.037.109c.002.005.693 2.073 1.997 2.073 1.464 0 2.897 1.285 3.173 1.547l4.446 1.482 3.236.809v2.663l-3.178 1.589c-1.486.743-5.999 3.751-6.012 3.759-1.002.668-3.263 1.634-4.453 2.228l-.691 2.073.729 2.916c.121.248.77 1.618.77 2.36 0 .609.556 1.791.691 2.07.381.256 2.304 1.563 2.999 2.258.411.41.611.808.81 1.207.177.355.355.711.702 1.058.787.787 1.556 2.329 1.559 2.333l.034.064v1.235l-6.459-2.422c-6.236-4.157-7.708-6.182-13.379-11.853l-.508 1.017 2.178 3.629 4.504 6.006 4.499 4.499 7.55 4.53 3.087 3.087.793 2.379v1.618l-.755 1.509v1.344l3.693 4.431 3.041 3.041 2.326 3.877v3.971l-1.649 1.649-2.431.607c.709.426 2.722 1.501 3.226 1.94.015.013 5.305 4.548 6.056 5.299.747.748 5.252 4.501 5.265 4.512l4.633 3.863v2.439c-.261.783-.526 1.567-.783 2.351-.527.783-1.05 1.57-1.571 2.356l-1.421.711v1.217l1.51 1.509v4.742l-2.317 3.089-1.556 2.334c-1.956.78-3.698 1.49-5.677 2.15 16.147 14.722 27.223 24.047 40.462 40.501.527 1.066 1.063 2.13 1.596 3.194l-1.721 2.582-2.424-.808h-2.892l-2.066 1.377v2.803l1.51 3.02v2.363l-.783 3.133c-1.536 1.529-3.084 3.06-4.603 4.603-.791.519-1.577 1.051-2.364 1.576h-.955c4.763 5.292 6.238 6.891 10.146 12.361l3.761 3.762 2.953 3.691h2.081c6.126-2.227 8.291-3.012 14.318-4.519l5.283-1.51 12.073-3.773c12.144-4.25 23.949-8.297 36.24-12.079l30.175-10.561 9.021-4.511 9.807-6.035 9.049-6.032c7.094-6.003 9.366-8.006 16.62-12.842 4.9-3.5 4.745-3.507 9.822-6.044l4.569-3.047 3.808-.761 3.801-1.521h2.788v-2.852c1.442-1.447 2.889-2.89 4.334-4.335l-1.226-.613-1.598-2.398v-1.749l2.368-1.579 8.273-9.025 3.007-3.759 2.16-2.88-.625-1.247-2.246-.749-1.583-2.375-.798-2.393c.268-.807.535-1.616.807-2.422l.045-.045c.002-.002.672-.672.672-1.308 0-.496.231-.727.461-.957.146-.147.294-.294.294-.553 0-.573-1.355-1.257-1.359-1.26l-1.376-.688-1.339.67-.808.808h-1.913v-4.147a67.9 67.9 0 0 1 18.979-19.011c2.392-2.392 4.181-4.36 7.25-5.895l-4.251-4.251c-.002-.002-.838-.838-.838-1.712 0-.258-.12-.546-.26-.883-.224-.542-.495-1.198-.495-2.136l.002-.47c-.555 0-.555 0 .029-1.167l.663-1.327-1.449-1.448v-.119c0-.006 0-2.381.839-3.221 2.022-2.023 4.038-4.057 6.069-6.07l3.02-1.51 1.879-1.879-2.747-.687v-2.565c.774-1.292 1.545-2.589 2.326-3.877 1.44-1.458 2.901-2.901 4.351-4.35l-2.265-2.265 4.06-4.061h.118c.002 0 .637 0 1.308-.671.41-.41.809-.61 1.207-.809.355-.176.711-.354 1.058-.701.408-.408.808-.608 1.207-.808.355-.177.711-.355 1.058-.702.261-.262.608-.522.954-.781.614-.46 1.228-.921 1.228-1.283 0-.42.201-1.033.503-1.637.296-.592.693-1.187 1.09-1.584.294-.294.294-.796.294-1.214 0-.63 0-1.135.663-1.135.469 0 .469-1.221.469-1.224v-.366l3.548.887.037.176c.002.009.72 3.547 1.231 3.547.624 0 .838.346 1.133.823.143.232.311.503.579.771.363.362.426.579.5.832.079.272.176.6 1.009 1.433.587.586.952 1.063 1.263 1.47.469.615.81 1.061 1.683 1.497 1.075.538 1.432 1.072 1.787 1.606.161.24.322.48.553.712l1.51 1.51c.838.838.839 1.106.839 1.24 0 .081 0-.081.596.217.571.286.664.194.709.148.373-.374.374-.374.928.734.786 1.573.786 1.573.786 2.393 0 .795-.77 3.107-.771 3.113l-.046.132-1.961.653.43.43c.372.372.57.878.748 1.336.177.453.33.845.56.845.134 0 .167-.034.19-.056.313-.313.314-.313 1.522.895 1.079 1.079 1.427 1.826 1.54 2.197.531.064 1.614.388-.829 2.017-1.255.836-2.28 1.218-3.079 1.515-.627.233-1.105.412-1.407.714-.416.416 4.391 1.785 4.405 1.789l.093.026 4.571 6.096 5.985 5.985 2.265.755 3.149 3.15v4.823c-2.777 1.386-4.224 2.182-7.102 3.151l-1.441-.72c-.281.238-.909.699-1.557.699-.319 0 .832 3.563 1.004 4.091.332.336 2.313 2.377 3.025 3.801.742 1.483 2.223 4.446 3.648 5.158 1.589.795 3.178 1.589 3.178 2.52 0 .689.739 2.168 1.478 3.646.356.712 1.096 1.451 1.742 2.097.705.706 1.31 1.311 1.31 1.807 0 .236.698.759 1.396 1.282.812.609 1.625 1.219 1.625 1.737 0 .637 0 .638.671 1.309.187.187.399.156.58.13.088-.013.171-.025.256-.025.454 0 .757.229.757 1.607 0 2.146.67 2.816.672 2.818l.246.246c-1.753 1.168-2.391 1.618-4.158 2.506h-1.18l.646 1.937v1.671l-1.215 1.213c.265.14.25.458-1.209 1.188-.817.408-1.422.408-1.826.408-.187 0-.281 0-.281.092 0 .663-.52.663-1.04.663-.235 0-.47 0-.47.093 0 .615 1.247 2.535 1.439 2.827l3.698 2.958c.309.102 2.226.724 2.883.724.284 0 1.001-.538 1.717-1.074.794-.596 1.588-1.191 2.058-1.191.28 0 1.184-.723 2.088-1.446.983-.787 1.967-1.574 2.442-1.574.655 0 9.619-6.719 9.644-6.738a549.239 549.239 0 0 1 24.944-15.119c11.686-6.573 22.7-12.104 34.726-18.117 8.094-5.059 11.775-6.073 21.171-9.831 7.202-3.273 9.856-4.293 17.324-6.782 4.815-4.815 7.533-6.779 13.607-9.816 4.267-2.56 7.745-4.627 12.154-6.832h.065c.004 0 1.225 0 1.225-.469v-2.265c0-.694-.719-2.128-.721-2.132l-.026-.049-1.515-13.638c-1.088-7.617-2.172-15.016-3.019-22.643-.051-.254-.759-3.823-.759-4.574v-1.979h-1.893l-2.22 1.48-.038.013c-.006.002-2.318.772-3.114.772-.715 0-2.92.736-2.927.738l-.075.027c-2.31-.519-4.622-1.034-6.934-1.541l-6.134-4.6-2.286-3.811-2.267-3.023c-.005-.007-1.557-2.332-1.557-3.176 0-.31-.174-.658-.348-1.005-.203-.408-.407-.818-.407-1.259 0-.42.197-1.01.393-1.6.181-.543.362-1.086.362-1.421 0-.83 2.12-2.991 2.331-3.204 3.145-4.716 5.125-5.549 9.842-9.087l2.255-2.255c2.497-2.032 5.037-4.03 7.552-6.042l3.743-3.743c2.531-5.061 2.542-4.911 6.035-9.802l6.037-9.056c2.692-4.71 3.617-6.119 6.803-10.58l5.27-8.282c3.926-6.872 8.006-13.594 12.079-20.382 1.587-3.175 2.736-5.34 4.563-8.361l3.065-2.298 3.801-3.04c5.649-2.457 5.356-2.293 11.436-3.813h3.792c12.397-1.77 23.421-.532 35.639 1.53l.064.064c.004.004 1.427 1.426 2.063 1.426.442 0 .851.204 1.259.408.348.173.696.347 1.006.347.54 0 1.103-.48 1.263-.629.109-.332.578-1.82.247-1.82-.825 0-.996-1.6-1.031-2.265h-7.525c-.962-7.684-1.544-14.681-1.544-22.442 15.031-1.278 30.063-2.561 45.096-3.822.51 7.991 1.023 15.984 1.547 23.974l-9.057.755.72 9.361 5.071 2.173h2.251c1.537.515 3.077 1.022 4.615 1.539 5.389 3.593 6.628 5.099 11.399 9.87 6.869 8.439 7.905 10.495 12.881 20.447 3.314 5.523 5.429 9.347 8.302 15.094 3.636 5.817 6.783 10.546 9.802 16.584l8.266 8.266 3.025 2.268c.864 1.082 2.37 2.742 3.061 3.828.004.006 1.491 2.237 2.227 2.973.774.774 2.299 3.06 2.303 3.067.488.752 1.122 2.241 1.557 3.109v5.35c0 .845-1.553 3.169-1.557 3.175-.004.006-1.463 2.2-1.463 2.865 0 .874-1.59 2.463-1.594 2.467l-.03.031c-3.947 1.96-6.352 2.739-10.708 3.828h-7.648l-3.052-1.526-2.639-.66v12.47c0 .685-1.359 31.317-1.499 34.477l6.51.723c6.391 0 11.054.581 17.423 1.518 2.046.759 4.09 1.528 6.131 2.299l3.862 3.862.021.063c.003.006.773 2.318.773 3.113 0 .715.736 2.921.738 2.927l.016.048v173.696l.847 142.17V904.5H-5.5V656.859c.027-12.996.059-25.991.094-38.987l.066-.079zm8.74-9.447-8.238 9.737-.377 286.132h1449.03l-1.131-189.596-.001-173.609c-.113-.344-.755-2.336-.755-3.063 0-.644-.599-2.502-.718-2.864l-3.686-3.687-5.95-2.231-5.252-.75-6.769-.752c-5.272 0-6.888-.178-12.365-.787l.011-.266c.004-.097 1.509-33.929 1.509-34.718v-13.199c1.133.283 2.269.561 3.401.85l2.989 1.494h7.452l2.984-.746 4.49-1.496 2.957-1.479c.203-.208 1.397-1.45 1.397-2.034 0-.843 1.552-3.168 1.556-3.175.005-.005 1.464-2.199 1.464-2.865v-5.22l-1.47-2.94c-.109-.162-1.512-2.255-2.221-2.963-.749-.749-2.203-2.918-2.297-3.06l-2.984-3.73c-4.497-3.371-7.273-6.519-11.359-10.605l-2.279-4.556c-4.66-7.457-7.491-11.963-11.328-19.636-3.314-5.524-5.43-9.35-8.304-15.099l-3.013-5.272-6.004-7.503-6.028-6.03-2.991-2.242-2.229-1.486-4.445-1.482h-2.28l-5.499-2.357c-.266-3.423-.529-6.846-.789-10.269l9.063-.756-1.473-22.835-43.994 3.729v5.018l.752 10.542.724 5.787h7.583v.285c0 .006 0 1.98.47 1.98 1.139 0 .271 2.637.269 2.644l-.022.064-.045.044c-.002.003-.839.839-1.712.839-.445 0-.852-.204-1.259-.408-.347-.174-.693-.347-1.006-.347-.768 0-2.093-1.232-2.401-1.53l-4.428-.738-6.04-.755-7.521-.752h-12.059c-4.431.633-4.868.755-9.042.755l-5.984 1.496-5.23 2.241a266.827 266.827 0 0 1-6.725 5.231l-2.232 3.72c-3.43 6.861-7.372 13.042-11.326 19.633-3.825 6.695-7.602 12.609-12.084 18.884-3.992 6.984-8.17 13.098-12.835 19.629l-2.276 4.552-3.805 3.805c-2.497 2.033-5.037 4.03-7.552 6.042-2.914 2.914-4.877 4.226-8.313 6.803l-2.238 2.238-1.51 2.266-.017.016c-.006.006-2.181 2.182-2.181 2.818 0 .421-.197 1.011-.394 1.6-.181.543-.362 1.085-.362 1.421 0 .312.174.659.347 1.005.204.407.409.815.409 1.259 0 .645 1.366 2.72 1.458 2.858 2.095 2.794 2.674 3.701 4.511 6.763l5.947 4.46 6.658 1.48c.413-.135 2.326-.746 3.035-.746.662 0 2.603-.631 2.891-.726l2.308-1.539h2.636v2.55c0 .734.747 4.462.749 4.473.389 1.79.542 4.87.759 6.816 1.428 9.994 2.657 19.385 3.77 29.403.138.286.762 1.617.762 2.344v2.265c0 .92-1.4 1.026-1.727 1.038l-4.459 2.23c-4.245 2.547-7.664 4.587-12.068 6.789l-5.998 4.499-3.057 3.056-9.105 3.035c-7.883 3.584-15.327 6.584-23.385 9.806-9.421 5.889-18.661 10.085-28.682 15.095l-12.077 6.794-10.57 6.04-14.318 9.042c-.086.065-9.133 6.851-9.984 6.851-.28 0-1.184.724-2.088 1.446-.983.787-1.967 1.574-2.442 1.574-.284 0-1 .537-1.716 1.074-.794.595-1.588 1.191-2.059 1.191-.795 0-3.107-.77-3.114-.772l-.044-.015c-1.285-1.025-2.567-2.055-3.851-3.082l-.024-.037c-.005-.006-1.558-2.33-1.558-3.174 0-.663.521-.663 1.041-.663.235 0 .47 0 .47-.093 0-.663.284-.663.851-.663.352 0 .879 0 1.572-.346.424-.212.869-.215.882-.215h-.689l1.914-1.914v-1.349l-.864-2.593h1.839l1.423-.711 2.015-1.343c-.248-.412-.638-1.318-.638-2.945 0-.888-.075-1.036-.187-1.036-.049 0-.109.009-.173.018-.313.045-.678.098-1.067-.291-.838-.838-.838-.839-.838-1.711 0-.236-.698-.76-1.396-1.283-.812-.609-1.624-1.218-1.624-1.737 0-.26-.528-.788-1.143-1.403-.675-.674-1.447-1.446-1.846-2.245-.771-1.542-1.542-3.083-1.542-3.902 0-.581-1.43-1.296-2.861-2.011-1.595-.798-3.133-3.874-3.902-5.412-.732-1.466-2.962-3.694-2.968-3.701l-.047-.047-.022-.066c-.004-.014-1.649-4.904-.484-4.904.637 0 1.306-.669 1.308-.671l.145-.145 1.589.795 2.133-.711 4.355-2.177v-4.237l-2.891-2.891-2.265-.755c-4.885-4.886-6.329-6.407-10.584-12.081-.735-.217-5.574-1.701-4.562-2.713.388-.388.918-.585 1.613-.844.77-.287 1.758-.655 2.961-1.456 1.48-.988.915-.988.913-.988h-.285v-.285c0-.002-.001-.638-1.427-2.064-.804-.805-.625-.984-.715-.895-.089.089-.223.224-.593.224-.618 0-.837-.561-1.091-1.209-.157-.403-.331-.85-.621-1.14l-1.08-1.08 2.566-.856c.158-.485.696-2.185.696-2.795 0-.691-.001-.691-.725-2.139-.2-.4.169-.77-.015-.586-.144.143-.43.427-1.367-.041-.913-.457-.913-.457-.913-.726 0-.055-.001-.166-.672-.837l-1.51-1.51a4.916 4.916 0 0 1-.623-.798c-.314-.473-.629-.945-1.567-1.414-.993-.496-1.366-.985-1.882-1.66a12.813 12.813 0 0 0-1.213-1.413c-.934-.935-1.053-1.341-1.151-1.676-.052-.175-.097-.327-.359-.589a4.444 4.444 0 0 1-.659-.876c-.197-.319-.341-.55-.649-.55-.874 0-1.586-3.056-1.752-3.827l-2.517-.63c-.061.524-.273 1.437-1.016 1.437-.092 0-.092.251-.092.564 0 .525-.001 1.157-.461 1.617-.357.357-.716.896-.986 1.435-.264.529-.441 1.049-.441 1.383 0 .645-.728 1.192-1.456 1.738-.325.243-.65.487-.892.729-.408.408-.808.608-1.208.808-.354.177-.71.355-1.057.702-.408.408-.808.608-1.208.808-.356.179-.713.357-1.057.703-.646.645-1.311.794-1.584.828l-3.499 3.499 2.265 2.266-4.71 4.709-2.204 3.672v1.966l3.293.824-2.652 2.651-3.019 1.51-6.01 6.009c-.578.577-.659 2.247-.67 2.702l1.569 1.569-.847 1.695c-.171.342-.903.342-.537.342.188 0 .568 0 .568 1.041 0 .83.247 1.426.452 1.92.163.394.303.732.303 1.099 0 .637.67 1.307.672 1.309l4.809 4.809-1.84.92-2.979 2.234-3.03 3.03-4.53 3.021-11.285 11.284-2.957 4.435v3.403h1.107l.702-.701 1.681-.841 1.644.822c.004.002 1.661.824 1.661 1.761 0 .495-.23.726-.461.956-.146.147-.294.294-.294.554 0 .748-.615 1.47-.791 1.662l-.704 2.113.712 2.136 1.436 2.155 2.284.761.886 1.773c-4.536 6.032-8.559 10.319-13.741 16.046l-2.162 1.441v1.271l1.421 2.132 1.795.897-4.726 4.726v3.187h-3.252c-4.038 1.615-3.293 1.409-7.491 2.248-4.114 2.742-4.658 3.077-9.022 5.259-4.051 2.894-7.91 5.525-12.062 8.294-27.004 22.849-42.993 27.821-77.85 38.545l-11.315 3.772c-12.997 4.549-25.19 8.753-38.517 12.085l-8.337 3.032h-2.449l-3.088-3.86c-4.266-4.266-3.885-3.924-7.568-9.08l-7.214-8.016h2.065l2.166-1.444 4.457-4.457.727-2.907v-2.167l-1.51-3.02v-3.237l2.464-1.643h3.148l2.106.702 1.299-1.948-1.424-2.846-6.007-7.51-9.051-9.805-26.02-23.723 2.709-.904 3.693-1.477c1.231-1.846 2.335-3.357 3.678-5.147v-4.318l-1.51-1.51v-1.803l1.599-.801 1.449-2.173.727-2.179v-2.09l-4.426-3.689c-.014-.009-4.544-3.785-5.306-4.547-.733-.733-5.665-4.963-6.005-5.255l-4.344-2.606 3.609-.903 1.371-1.371v-3.579l-2.203-3.673c-2.729-2.728-4.335-4.611-6.857-7.628v-1.676l.756-1.51v-1.403l-.717-2.152-2.953-2.952-7.55-4.53c-5.242-5.242-7.656-8.197-11.469-14.556l1.002-2.003 9.318 9.319 4.483 2.988 5.62 2.108v-.278c-.153-.297-.794-1.498-1.426-2.13-.408-.408-.608-.808-.807-1.207-.179-.356-.358-.713-.703-1.058-.737-.737-2.967-2.224-2.973-2.228l-.061-.04-.035-.065c-.002-.004-.789-1.582-.789-2.398 0-.694-.719-2.128-.721-2.132l-.018-.033a493.27 493.27 0 0 1-.782-3.13c.27-.82.544-1.639.819-2.457l4.617-2.309c.232-.155 4.564-3.037 6.058-3.784l2.862-1.43v-1.868c-2.7-.675-4.735-1.345-7.421-2.24l-.046-.046c-.004-.004-1.426-1.426-2.818-1.426-1.499 0-2.311-1.87-2.494-2.347l-2.962-1.482-1.571-1.57-.023-.045c-.006-.012-2.243-4.488-2.966-5.21-.639-.639-2.988-2.422-3.6-2.885-.359.202-1.199.723-1.199 1.173 0 .445-.204.853-.407 1.26-.175.346-.348.693-.348 1.005 0 .812-1.439 2.998-1.55 3.165l-1.513 3.028c-1.032 1.267-2.055 2.557-3.071 3.838-.792.524-1.58 1.053-2.37 1.58h-.086c-.008 0-2.902 0-3.573.671-.795.795-3.54.194-3.987.089l-4.413.735-1.977 1.318c1.042 1.563 1.304 1.929 2.09 3.501l2.189 1.46 2.972 1.486 3.482.871-.356.355c-.004.004-1.427 1.427-1.427 2.063 0 .645-.728 1.192-1.457 1.738-.324.243-.649.487-.891.729-.739.739-2.225 2.967-2.229 2.973l-.018.029-3.037 3.036-2.631 3.29h7.66l7.453-2.981 5.928-5.081c-.307 1.225-.591 2.745-.973 3.89-.002.008-.77 3.091-1.584 3.904-.748.748-4.501 5.252-4.512 5.265-4.152 5.16-9.069 9.078-14.364 12.86l-2.132 2.844.653 1.306c.135.126.719.643 1.279.643.873 0 2.462 1.589 2.467 1.594l.03.03.869 1.739-1.625 1.625c-.124.242-.824 1.577-1.539 2.293-.243.243-.549.477-.882.733-.724.556-1.59 1.221-2.086 2.214-.663 1.325-1.879 2.639-2.224 2.999.031.207.155.694.662 1.202.309.308.498.615.659.876.197.319.34.55.649.55.495 0 .915.42 1.334.839.335.335.672.671.931.671 1.04 0 1.04 1.791 1.04 1.795v.065l-.808 1.617c-5.388 5.388-11.842 12.65-17.411 17.408-.017.016-6.023 5.271-6.78 6.027l-4.406 4.407c.177.552.715 2.277.715 2.941 0 .603 1.945 2.58 2.162 2.799l4.434 2.956c4.31 0 3.409-.066 7.749.807v2.585l-1.531 2.297-.752 3.009c-3.678 6.344-4.053 6.589-9.1 12.898l-4.524 6.033c-3.263 5.127-4.824 7.659-8.334 12.117l-3.776 3.775-2.961 3.701-.701 2.806 2.151 2.151c.293.293.612.293.93.293.437 0 .874.001 1.335.462l.838.838v3.851c.113.344.755 2.336.755 3.062 0 .613 0 1.225.47 1.225.813 0 2.192 1.942 2.458 2.329.277.134 1.462.691 2.072.691.795 0 3.107.77 3.114.772l.062.022.884.885v1.762c-11.26 9.002-16.99 13.022-29.554 19.723-.122.129-.646.718-.646 1.281 0 .697 0 1.394.67 2.064l3.011 3.009c.246.184 2.947 2.192 3.584 2.192.872 0 1.709.836 1.712.839l.154.154-6.111 10.693v2.851l2.503 3.338c-18.205 2.183-34.596 4.365-52.73 5.351l-.928-.929v-3.087l-2.237-5.965c-3.65-6.387-3.993-7.806-6.896-15.363l4.738-2.369 5.26-3.757 5.174-4.436V705.6l-.689-2.069-2.903-.725c-21.893-12.281-23.407-13.582-44.648-29.513-1.836-2.617-3.667-5.238-5.501-7.857 1.118-.56 2.235-1.122 3.354-1.677l4.555-.76 5.893-1.473 1.469-3.673 2.261-3.015 1.474-4.422-.768-6.141c3.183-2.39 5.71-3.965 9.16-6.121l1.385-2.078-1.418-2.836c-20.928-22.602-28.143-32.912-47.58-59.669-2.994-7.548-6.091-13.787-7.646-21.564h10.136l3.666-.733c.213-.194.917-.777 1.646-.777.667 0 3.594-2.2 3.602-2.206l3.748-2.997 3.718-3.718.727-2.907v-2.834c-3.345-2.23-4.324-3.603-7.466-6.745-15.824-13.563-28.715-26.027-43.814-40.794-.852-1.409-1.695-2.826-2.543-4.239h2.703l2.913-1.457.771-.77 2.219-.74.725-1.449 1.51-1.51.685-1.371-.71-2.841c-4.104-4.104-7.599-9.016-11.274-13.539l-2.473-2.473 7.735-6.961.698-1.398v-1.327l-8.976-8.977c-14.286-12.501-26.747-22.507-32.051-41.081l7.506 6.672 6.746 3.748 6.02 2.258 4.493 1.498 10.406 1.486.49-.489-7.42-11.13-6.034-8.296-4.707-6.278c3.511-2.345 5.041-2.803 9.315-4.702l4.455-3.713 2.08-4.159-2.664-.666c-4.518-.645-8.319-1.362-12.834-2.265-4.428-.739-5.476-1.033-9.939-2.299-3.04-4.568-6.075-9.143-9.132-13.699l-3.018-7.544-2.905-3.632h-.502l-1.405 1.404c-1.757 2.929-3.367 5.428-5.271 8.284-2.541 4.233-4.877 8.056-7.603 12.16l-4.615 1.537c-8.787 3.297-13.084 3.821-22.664 5.295l-1.071.535 3.415 2.733 5.267 3.761c5.325 2.485 10.558 4.902 15.805 7.526l3.119.78.867 1.732c-.73 2.174-1.435 3.987-2.297 6.141-.755 3.776-1.543 7.557-2.267 11.336-1.523 3-3.012 6.025-4.518 9.035v1.446c0 .001 0 .469.47.469h.69l1.418-.709c3.599-2.999 6.764-5.449 10.534-8.277 3.545-3.544 6.746-6.414 10.534-9.782l1.564-3.127h2.079c-1.166 3.498-1.882 4.917-3.929 7.989-8.209 13.68-12.131 17.58-25.751 25.752l-3.734 2.988-3.743 3.743-1.457 2.913v2.891l.711 1.423 1.554 2.33v1.661l-.808 1.617c-2.285 2.263-4.55 4.549-6.824 6.824l-2.996 3.745-2.256 3.008-2.253 3.755-1.473 2.946v2.136l.682 1.363 6.113 3.056v1.804l-4.06 4.06-1.041-1.04v-3.775l-.641-.641-1.281-.641-.527.526v3.775l-.755.756v1.169l-4.9-3.267h-1.308l-.639.639-.642 1.283.58.58 1.448.724 2.312.771 1.639 1.639v1.049l-3.134 1.566-1.396 1.397v1.677h-.922c-2.858 2.858-4.867 4.198-8.231 6.721-3.527 3.527-5.182 5.396-8.967 8.235v2.836l.733 2.198 1.479 2.958 1.462 1.462 2.301 1.534.853 1.705-1.559 3.116-.739 2.958v5.187l2.967 5.933 4.484 4.484c.278.189 2.364 1.64 2.364 2.483 0 .469 1.974.469 1.98.469h.065l1.73.866v3.194c0 .873-.73 1.014-.966 1.037l-1.413.705-1.48 1.48c-.004.005-1.593 1.594-2.466 1.594-.573 0-1.257 1.354-1.259 1.358l-.022.041c-2.437 2.412-2.477 2.433-5.322 4.566-2.522 2.523-5.06 5.037-7.57 7.572l-1.511.754-6.009 6.01-3.77 3.016-2.269 3.026-3.031 2.272-15.844 15.845c-2.167 2.6-3.696 4.45-6.032 6.787-2.086 2.78-2.143 2.898-4.509 5.264l-1.51 3.02-2.265 2.265c-.822 1.644-1.156 2.105-2.253 3.75l-.714 1.428v1.381l.702 1.403 1.395 1.396h2.861l2.264-.755h1.435l.755-.755h3.313l.812 1.624 1.449 1.45 1.51.754.869.869v1.747l-.808.808-.724 1.448c-.172.517-.553 1.895-.767 2.289-.002.004-.721 1.438-.721 2.131v4.497l.735 2.937 2.992 4.488 2.231 2.975 5.971 4.479 2.416.805v1.832c-1.911 1.911-1.497 1.537-3.864 3.114-2.087 2.783-2.14 2.891-4.515 5.266-3.073 4.097-4.097 5.607-7.558 9.068l-3.76 4.512c-3.575 4.468-6.511 8.024-10.586 12.098-2.75 3.3-5.494 6.536-8.291 9.799l-3.003 3.753-1.498 2.247-.694 1.387.734 2.201v2.189l3.671 3.671 2.532 1.688-1.085 1.085h-.907c-4.179-1.045-7.398-2.197-11.397-3.796-7.354-2.452-11.683-4.006-18.166-8.328-4.377-2.188-4.927-2.529-9.06-5.284-2.55-1.276-4.305-2.283-6.782-3.769-3.163-1.582-5.294-2.724-8.305-4.531-3.221-1.61-5.395-2.588-8.299-4.524l-7.523-3.009-4.502-1.501-5.273-1.506-4.499-.75-6.022-.752h-8.269c-3.612.602-6.905 1.051-10.555 1.508l-5.265.752c-8.133 1.626-21.622 5.29-29.564 5.29-1.719-.856-2.153-1.17-3.863-2.311-4.201-2.52-8.014-4.837-12.082-7.549l-15.842-9.053-18.09-9.046c-5.056-2.166-9.408-4.326-14.345-6.795l-5.285-2.264-6.028-2.261c-5.714-1.905-11.032-3.809-16.616-6.042l-4.493-1.498c-2.985-.746-5.619-1.37-8.522-2.337v-1.078l1.449-1.449-.654-1.308-1.521-2.282-.784-2.35v-1.838h.922l3.608-3.608v-1.274l-.586-.587h-.719l-9.883-6.082-3.806-2.284-2.317-2.318-.87-1.738 1.739-1.739h1.563l1.363-.681.734-1.468.702-.702v-2.213l.829-1.657 1.552-.776.639-.64v-2.03c-8.926-8.926-12.861-13.9-18.089-25.661l-.96-1.922h5.627l3.607-3.607v-1.328l-.701-1.403-.725-.725c-4.903-4.412-8.937-8.182-13.581-12.825l-3.26-2.446c.591-.591 1.18-1.185 1.774-1.774l1.507-.753.641-.642v-.572l-.701-1.403-3.828-3.829v-.99l2.264-2.266v-1.273l-10.486-10.487c-1.044-1.283-2.069-2.588-3.104-3.879v-2.177l3.468 2.601 2.218 1.479 2.938.734h3.281l-1.295-2.59-1.483-2.225-4.083-4.083 4.9-1.634 1.435-1.434.64-1.282-.526-.526h-4.446c-1.034-.259-2.067-.52-3.102-.776l-2.36-1.573c-2.269-3.794-2.171-3.501-3.757-7.466h-1.165l-1.421 2.131c-.83 1.661-1.156 2.113-2.265 3.775l-.795 1.591c-1.97.655-3.379 1.044-5.417 1.554l-2.292.764h-1.434l-.47.469.523.523 1.51.755 1.494 1.495c1.511.503 3.022 1.004 4.531 1.51l.884.884v3.936c-.81 2.414-1.041 2.86-2.205 5.186l.527.526h.54l3.673-2.938 3.505-3.505v2.292c-.781 1.039-1.572 2.077-2.342 3.123l-5.292 4.536-2.295 2.294-2.906 1.454v1.218l1.51 1.51v.988l-3.841 3.842-1.485 2.229-.714 1.427v1.27l1.396.699.987.986c-2.756 2.756-5.2 4.043-8.525 6.26l-2.918 2.919v1.273l.702.702.754 1.51.809.809v.99l-.755.755v2.784l3.661 3.662 1.624.812v1.105l-1.624.811c-2.365 2.366-2.484 2.425-5.264 4.51l-14.33 14.329-1.8 2.23.339 3.329h2.127l1.677 1.679v1.743l-.755.755v3.541l2.906 2.906 1.404.701h1.304l-.397.469z" style="fill:#fff;fill-rule:nonzero"/><path class="fil8 str3" d="m1339.254 335.385-1.51-5.284-.755-5.286v-5.285l.755-4.53 1.51-4.53 2.265-4.53.755-3.775.755-3.02.754-3.775-3.019-6.795-3.02-5.285-4.53-6.04-1.51-1.51v3.02l1.51 5.285.755 6.041v5.284l-1.51 4.53-2.266 6.04-.754 5.285-.755 6.795 1.509 5.285 3.021 5.285zM1351.991 332.965l.755-2.265.755-4.53 1.51-4.53 3.775-3.776 3.02-2.264 2.265-3.02v-2.266l-.755-3.774-1.51-3.775-3.02-3.775-2.265-3.02v3.02l-.755 6.039-1.51 3.021-1.51 2.264-2.265 1.511-2.265 3.019-.755 2.266-.755 2.265v4.529l.755 2.266 1.51 2.265z"/><path class="fil4 str1" d="M172.567 188.796h1.551l.946.313a1.904 1.904 0 0 1 1.735.169l2.347 1.52 11.521 5.761 1.19.413 1.133-1.133.755-1.509v-14.345l-1.51-2.266-2.265-1.509-6.795-3.775-6.795-3.775-3.775-4.531v-4.53l.755-1.509h2.265l3.02 1.509 5.285 3.02 3.02 2.266 3.775 1.509h1.51l1.51-2.265v-3.019l-1.51-3.775-3.02-2.266-3.775-2.265-4.53-1.51-4.53-3.019-3.02-2.265-.755-3.021v-3.775l.755-2.265h2.265l3.02 1.511 4.53 2.264 3.02 1.511 2.265 1.51 3.02 1.509 1.51-.754.755-3.776V121.85l.755-1.511 1.51-.755.755-.755h.755l.479.16.763-.254h.755l.754.755 1.51.755.756 1.51V140.63l.755 3.775 1.51.755 3.019-1.51 2.266-1.51 3.02-1.51 4.53-2.265 3.019-1.51h2.266l.755 2.265v3.775l-.755 3.02-3.02 2.265-4.531 3.02-4.53 1.51-3.774 2.265-3.021 2.265-1.509 3.775v3.02l1.509 2.265h1.51l3.776-1.51 3.02-2.265 5.285-3.02 3.019-1.51h2.266l.755 1.51v4.53l-3.775 4.53-6.795 3.775-6.795 3.775-2.266 1.51-1.509 2.265v14.345l.755 1.51 1.132 1.132 1.19-.412-2.196 1.318 12.698-6.794 4.066-1.945 3.446-.248c1.009-.072 1.839.829 1.839 1.84v17.289l2.089 1.011 1.557.375 1.682-.144 12.236-7.487 1.144-2.47.106-2.72-.326-7.767-.327-7.766 1.894-5.584 3.864-2.364 1.682-.145 1.182 1.932.288 3.364.183 6.085-.356 3.758.682 4.008.788 1.288 2.72.106 2.577-1.576 2.431-3.259.356-3.758-.038-4.402-1.076-4.652.211-5.44.356-3.759 2.182-2.22 3.22-1.97 2.326-.538 1.183 1.932.287 3.364.433 5.046.288 3.364-.106 2.72.289 3.364 1.432.895 3.614-1.327 2.576-1.576 3.22-1.97 3.864-2.364 3.864-2.365 2.576-1.576 1.682-.144 1.432.894 1.038.25.394.644.114.492.615.518.394.644-.25 1.038.144 1.682-.894 1.432-2.576 1.576-3.864 2.364-3.864 2.365-3.22 1.97-2.576 1.576-2.826 2.615.144 1.682 2.864 1.788 2.47 1.143 2.865 1.788 4.296 2.683 2.864 1.787 1.182 1.932-1.537 1.826-3.221 1.971-2.97.932-3.508-1.394-4.94-2.288-3.653-3.076-3.902-2.038-3.508-1.394-4.008.683-2.576 1.576-1.144 2.47.788 1.288 3.258 2.432 3.508 1.394 5.335 2.932 2.864 1.788 1.182 1.932-.894 1.432-3.864 2.364-5.834-.856-6.767-3.825-6.766-3.826-2.47-1.144-2.721-.106-12.236 7.487-.894 1.432-.375 1.557.974.8-3.614-1.887 18.03 11.414c.854.541 1.031 1.733.451 2.561l-.89 1.271-2.559 1.906-13.155 7.123h.001l-1.074 2.038.486 1.526.995 1.364 12.744 6.586 2.706-.301 2.38-1.32 6.474-4.303 6.474-4.303 5.757-1.274 4.024 2.08.995 1.363-1.04 2.012-2.728 1.99-5.109 3.309-3.398 1.643-3.075 2.66-.694 1.342 1.319 2.381 2.684 1.386 4.046.392 3.399-1.643 3.745-2.314 3.421-3.331 4.763-2.638 3.398-1.643 3.03.716 3.354 1.733 1.666 1.711-1.041 2.012-2.728 1.989-4.091 2.985-2.728 1.99-2.382 1.319-2.728 1.989-.022 1.688 3.007 2.404 2.683 1.387 3.353 1.733 4.025 2.079 4.024 2.08 2.683 1.387.995 1.364-.022 1.688.324 1.017-.347.671-.362.352-.124.795-.346.67-1.018.324-1.364.995-1.688-.022-2.683-1.387-4.024-2.08-4.025-2.079-3.353-1.733-2.683-1.387-3.701-1.062-1.364.995-.045 3.376.302 2.705-.045 3.377-.068 5.064-.045 3.376-1.04 2.012-2.358-.369-3.354-1.733-2.336-2.057-.626-3.723-.603-5.411.738-4.718-.279-4.393-.626-3.723-2.66-3.075-2.683-1.386-2.706.302-.693 1.341-.391 4.047.625 3.723.257 6.082-.045 3.375-1.04 2.013-1.688-.023-4.024-2.08-2.291-5.433-.235-7.77-.234-7.769-.301-2.706-1.319-2.381-12.744-6.586-1.688-.022-1.527.486-.071.497v18.244a1.845 1.845 0 0 1-1.84 1.839h-1.55l-3.03-1.003-1.012-.506a1.904 1.904 0 0 1-.983-.338l-.765-.536-10.968-5.484-.167-.056-1.172 1.133-.781 1.509v14.345l1.562 2.266 2.344 1.509 7.032 3.776 7.031 3.775 3.907 4.529v4.531l-.781 1.509h-2.344l-3.125-1.509-5.47-3.021-3.124-2.264-3.907-1.511h-1.563l-1.562 2.265v3.021l1.562 3.775 3.125 2.265 3.907 2.264 4.687 1.511 4.688 3.02 3.126 2.265.781 3.019v3.775l-.781 2.265h-2.344l-3.125-1.509-4.688-2.265-3.126-1.51-2.343-1.511-3.126-1.509-1.562.755-.781 3.775V343.819l-.781 1.51-1.563.756-.782.755h-.781l-.789-.255-.496.16h-.781l-.782-.755-1.562-.755-.781-1.51V324.85l-.782-3.775-1.562-.755-3.125 1.51-2.344 1.51-3.125 1.51-4.688 2.265-3.125 1.51h-2.344l-.781-2.265v-3.775l.781-3.02 3.125-2.265 4.688-3.02 4.687-1.51 3.907-2.265 3.125-2.265 1.563-3.775v-3.02l-1.563-2.265h-1.563l-3.906 1.51-3.125 2.265-5.469 3.02-3.125 1.51h-2.344l-.781-1.51v-4.53l3.906-4.53 7.032-3.775 7.031-3.775 2.344-1.51 1.563-2.265v-14.345l-.782-1.51-1.172-1.132-1.231.412 2.936-1.703h-.475l-13.299 7.116-4.065 1.944-3.446.248c-1.01.073-1.84-.828-1.84-1.839v-20.078l-.495-.117-1.681.154-12.193 7.557-1.131 2.477-.09 2.72.371 7.765.371 7.764-1.862 5.595-3.851 2.387-1.68.154-1.194-1.926-.307-3.362-.217-6.084.334-3.759-.705-4.005-.796-1.283-2.721-.091-2.566 1.591-2.413 3.272-.335 3.761.063 4.401 1.103 4.646-.18 5.442-.335 3.76-2.169 2.232-3.209 1.989-2.322.552-1.194-1.926-.307-3.362-.461-5.044-.308-3.362.091-2.721-.308-3.362-1.437-.886-3.606 1.347-2.567 1.591-3.209 1.988-3.851 2.387-3.85 2.386-2.567 1.591-1.682.154-1.437-.886-1.039-.244-.398-.642-.116-.492-.619-.514-.397-.641.244-1.04-.154-1.681.886-1.437 2.567-1.591 3.851-2.386 3.85-2.387 3.209-1.989 2.567-1.59 2.811-2.631-.154-1.681-2.874-1.772-2.477-1.129-2.874-1.772-4.312-2.658-2.875-1.771-1.193-1.925 1.528-1.835 3.209-1.989 2.964-.949 3.517 1.374 4.953 2.26 3.67 3.055 3.913 2.015 3.517 1.374 4.004-.705 2.567-1.591 1.13-2.477-.796-1.283-3.272-2.414-3.516-1.373-5.351-2.902-2.874-1.771-1.194-1.925.886-1.437 3.851-2.387 5.839.822 6.788 3.787 6.788 3.788 2.477 1.129 2.721.091 12.193-7.557.886-1.437.174-.744-.212-.221-18.792-9.7c-.899-.464-1.093-1.695-.543-2.544l.843-1.301 2.49-1.997 13.069-7.695-1.049-.168.958-.818-.405-1.55-.92-1.415-12.377-7.253-2.718.158-2.447 1.191-6.693 3.954-6.692 3.954-5.817.966-3.909-2.29-.921-1.414 1.145-1.955 2.83-1.842 5.278-3.033 3.481-1.461 3.211-2.493.763-1.302-1.19-2.449-2.606-1.527-4.02-.605-3.482 1.46-3.862 2.112-3.593 3.145-4.896 2.381-3.481 1.461-2.987-.876-3.257-1.908-1.573-1.797 1.145-1.954 2.83-1.842 4.244-2.763 2.83-1.843 2.448-1.19 2.83-1.842.112-1.685-2.876-2.56-2.605-1.527-3.257-1.908-3.909-2.291-3.908-2.29-2.605-1.527-.921-1.415.111-1.684-.269-1.033.382-.652.379-.332.167-.787.382-.651 1.033-.27 1.415-.921 1.684.112 2.606 1.527 3.908 2.29 3.908 2.291 3.257 1.908 2.606 1.527 3.639 1.257 1.415-.921.224-3.369-.158-2.718.224-3.369.336-5.053.224-3.369 1.145-1.954 2.336.494 3.257 1.908 2.224 2.178.427 3.751.316 5.435-.988 4.672.046 4.402.427 3.751 2.494 3.211 2.605 1.527 2.718-.157.763-1.303.606-4.021-.427-3.75.066-6.087.225-3.369 1.144-1.954 1.685.112 3.908 2.29 2 5.548-.178 7.771-.179 7.771.158 2.718 1.19 2.448 12.377 7.252 1.684.112 1.55-.404 1.658-1.573v-17.593c0-1.012.827-1.84 1.839-1.84zm27.865 78.516h-.708l.354.057.354-.057zm-39.908-35.988 3.021-2.265 4.53-2.265 3.02-1.51h3.775l4.53 2.265 3.02 2.265.755.755v1.511l-1.51 1.51-4.53 3.019-3.02 1.511h-4.53l-3.775-1.511-4.53-2.265-.756-.754v-2.266zm19.276-32.307 3.301 1.831 3.918 3.21 2.612 2.14 1.542 3.446-.218 5.06-.833 3.681-.381.998-1.378.616-1.996-.761-4.606-2.901-2.613-2.14-1.85-4.135-.163-4.063.217-5.06.381-.997 2.067-.925zm35.887.754-3.301 1.832-3.917 3.21-2.612 2.14-1.542 3.445.217 5.061.834 3.681.381.998 1.378.617 1.995-.762 4.607-2.901 2.612-2.14 1.85-4.135.164-4.062-.218-5.061-.38-.997-2.068-.926zm21.848 31.553-3.021-2.265-4.529-2.265-3.021-1.51h-3.774l-4.53 2.265-3.021 2.265-.754.755v1.511l1.51 1.51 4.529 3.019 3.021 1.511h4.53l3.775-1.511 4.529-2.265.756-.754v-2.266zm-56.98 33.221 3.301-1.832 3.918-3.21 2.612-2.14 1.542-3.445-.218-5.061-.833-3.681-.381-.998-1.379-.617-1.994.762-4.607 2.901-2.612 2.14-1.85 4.135-.164 4.063.217 5.06.381.997 2.067.926zm35.888 0-3.301-1.832-3.918-3.21-2.612-2.14-1.542-3.445.217-5.061.834-3.681.381-.998 1.378-.617 1.995.762 4.607 2.901 2.612 2.14 1.85 4.135.164 4.063-.217 5.06-.381.997-2.067.926zM549.281 283.948h.674l.41.136a.828.828 0 0 1 .754.073l1.019.66 5.001 2.501.517.179.492-.491.327-.656v-6.228l-.655-.983-.983-.656-2.951-1.639-2.95-1.638-1.638-1.967v-1.967l.327-.656h.984l1.311.656 2.294 1.311 1.312.983 1.638.656h.656l.655-.983v-1.311l-.655-1.639-1.311-.984-1.639-.983-1.967-.655-1.967-1.312-1.311-.983-.327-1.311v-1.639l.327-.983h.984l1.311.655 1.966.983 1.312.656.983.656 1.311.655.656-.328.327-1.639v-8.194l.328-.656.656-.327.328-.328h.327l.209.069.331-.11h.327l.328.327.656.328.327.656V263.036l.328 1.639.656.328 1.311-.655.983-.656 1.312-.656 1.966-.983 1.311-.656h.984l.327.984v1.639l-.327 1.311-1.312.983-1.966 1.311-1.967.656-1.639.983-1.311.984-.656 1.639v1.311l.656.983h.656l1.639-.655 1.311-.984 2.294-1.311 1.311-.655h.984l.327.655v1.967l-1.639 1.966-2.949 1.639-2.951 1.639-.983.656-.656.983v6.228l.328.656.492.492.517-.18-.954.572 5.513-2.949 1.766-.844 1.495-.108c.438-.032.799.359.799.799v7.506l.907.439.676.162.73-.062 5.312-3.251.497-1.072.046-1.181-.142-3.372-.141-3.371.822-2.425 1.677-1.027.731-.062.513.839.125 1.46.079 2.642-.154 1.631.296 1.741.342.559 1.181.045 1.118-.684 1.056-1.414.155-1.632-.017-1.911-.467-2.02.091-2.362.155-1.631.947-.964 1.398-.856 1.01-.233.514.839.124 1.46.188 2.191.125 1.46-.046 1.181.126 1.461.621.388 1.569-.576 1.119-.684 1.398-.855 1.677-1.027 1.678-1.026 1.118-.684.731-.063.622.388.45.108.171.28.049.214.268.225.17.279-.108.451.063.73-.388.622-1.119.684-1.678 1.027-1.677 1.026-1.398.855-1.118.685-1.228 1.135.063.73 1.244.776 1.072.497 1.244.776 1.865 1.164 1.243.777.514.838-.668.793-1.398.856-1.289.405-1.524-.606-2.144-.993-1.586-1.336-1.694-.884-1.523-.605-1.741.296-1.118.684-.497 1.073.343.559 1.414 1.056 1.523.605 2.316 1.273 1.244.776.513.839-.388.621-1.678 1.027-2.533-.372-2.938-1.661-2.937-1.66-1.073-.497-1.18-.046-5.313 3.25-.388.622-.163.676.423.347-1.569-.819 7.827 4.955c.372.235.448.753.197 1.112l-.387.552-1.111.827-5.711 3.093-.466.885.211.663.432.592 5.533 2.859 1.174-.131 1.034-.573 2.811-1.868 2.81-1.869 2.499-.552 1.748.902.432.593-.452.873-1.184.864-2.218 1.436-1.476.714-1.335 1.155-.301.582.573 1.034 1.165.602 1.757.17 1.475-.713 1.626-1.005 1.486-1.446 2.067-1.145 1.476-.714 1.315.311 1.456.752.723.743-.451.874-1.185.864-1.776 1.295-1.184.864-1.034.573-1.185.864-.009.733 1.305 1.043 1.165.602 1.456.752 1.747.903 1.747.903 1.165.602.432.593-.01.732.141.442-.151.291-.157.153-.054.345-.15.291-.442.141-.592.432-.733-.01-1.165-.602-1.747-.903-1.747-.903-1.456-.752-1.165-.602-1.606-.461-.592.432-.02 1.465.131 1.175-.02 1.466-.029 2.199-.019 1.465-.452.874-1.024-.161-1.456-.752-1.014-.893-.272-1.616-.262-2.35.321-2.048-.121-1.907-.272-1.616-1.155-1.335-1.165-.602-1.175.131-.3.582-.171 1.757.272 1.616.112 2.641-.02 1.466-.452.873-.732-.009-1.748-.903-.994-2.359-.102-3.373-.101-3.374-.132-1.174-.572-1.034-5.533-2.86-.733-.009-.662.211-.031.216v7.92c0 .44-.36.799-.799.799h-.673l-1.315-.436-.44-.219a.83.83 0 0 1-.427-.147l-.332-.233-4.762-2.381-.072-.024-.509.492-.339.655v6.228l.678.983 1.018.656 3.052 1.639 3.053 1.639 1.696 1.966v1.967l-.339.656h-1.017l-1.357-.656-2.375-1.311-1.356-.983-1.697-.656h-.678l-.678.983v1.312l.678 1.638 1.357.984 1.696.983 2.035.656 2.035 1.311 1.357.984.339 1.311v1.639l-.339.983h-1.017l-1.357-.656-2.036-.983-1.356-.656-1.018-.655-1.357-.656-.678.328-.339 1.639v8.195l-.34.655-.678.328-.339.328h-.339l-.343-.111-.215.07h-.339l-.34-.328-.678-.328-.339-.656V343.016l-.34-1.639-.678-.328-1.357.656-1.017.655-1.357.656-2.035.983-1.357.656h-1.018l-.339-.984v-1.638l.339-1.312 1.357-.983 2.035-1.311 2.036-.656 1.696-.983 1.356-.983.679-1.639v-1.311l-.679-.984h-.678l-1.696.656-1.357.983-2.374 1.311-1.357.656h-1.018l-.339-.656v-1.966l1.696-1.967 3.053-1.639 3.053-1.639 1.017-.656.679-.983v-6.228l-.34-.655-.508-.492-.535.179 1.275-.739h-.206l-5.774 3.089-1.765.844-1.496.108c-.439.031-.799-.36-.799-.799v-8.717l-.215-.05-.73.067-5.294 3.281-.49 1.075-.039 1.181.161 3.371.161 3.371-.809 2.429-1.672 1.036-.729.066-.518-.835-.134-1.46-.094-2.641.145-1.632-.306-1.739-.345-.557-1.182-.039-1.114.69-1.048 1.421-.145 1.632.027 1.912.479 2.016-.078 2.363-.145 1.632-.942.97-1.393.863-1.008.24-.519-.836-.133-1.46-.2-2.19-.134-1.46.04-1.181-.134-1.46-.624-.385-1.566.585-1.114.691-1.393.863-1.672 1.036-1.671 1.037-1.115.69-.73.067-.624-.385-.451-.106-.173-.278-.05-.214-.269-.223-.173-.279.107-.451-.067-.73.385-.624 1.114-.69 1.671-1.037 1.672-1.035 1.393-.864 1.115-.691 1.22-1.141-.067-.73-1.247-.769-1.076-.491-1.248-.769-1.872-1.154-1.248-.769-.517-.836.663-.797 1.393-.863 1.287-.412 1.527.597 2.15.981 1.593 1.326 1.699.875 1.527.596 1.739-.306 1.114-.69.49-1.075-.345-.558-1.421-1.048-1.526-.596-2.323-1.26-1.248-.769-.518-.836.384-.624 1.672-1.036 2.535.358 2.947 1.644 2.948 1.644 1.075.49 1.181.04 5.294-3.281.384-.624.076-.323-.092-.096-8.159-4.211c-.39-.202-.475-.736-.236-1.105l.367-.565 1.08-.867 5.674-3.341-.455-.072.416-.356-.176-.672-.4-.615-5.373-3.149-1.18.069-1.062.517-2.906 1.716-2.905 1.717-2.526.42-1.697-.995-.4-.614.498-.848 1.228-.8 2.291-1.317 1.512-.634 1.394-1.082.331-.566-.517-1.063-1.131-.663-1.745-.262-1.512.633-1.677.917-1.56 1.365-2.125 1.035-1.512.634-1.296-.38-1.415-.829-.682-.78.497-.849 1.228-.799 1.843-1.2 1.229-.8 1.063-.517 1.228-.799.049-.732-1.249-1.111-1.131-.663-1.414-.829-1.697-.994-1.697-.995-1.131-.662-.4-.615.049-.731-.117-.448.166-.283.165-.145.072-.341.165-.283.449-.117.614-.4.732.049 1.131.663 1.697.994 1.696.994 1.414.829 1.132.663 1.579.546.615-.4.097-1.463-.068-1.18.097-1.462.146-2.194.097-1.463.497-.848 1.014.214 1.415.829.965.945.185 1.629.137 2.359-.428 2.029.019 1.911.186 1.628 1.082 1.394 1.132.663 1.18-.068.331-.566.263-1.745-.186-1.629.029-2.642.098-1.463.497-.848.731.048 1.697.995.868 2.408-.077 3.374-.078 3.374.069 1.18.517 1.062 5.373 3.149.731.049.673-.176.72-.682v-7.638a.8.8 0 0 1 .798-.799zm12.098 34.088h-.308l.154.024.154-.024zm-17.326-15.625 1.311-.983 1.967-.983 1.311-.656h1.639l1.967.984 1.311.983.327.328v.655l-.655.656-1.967 1.311-1.311.656h-1.966l-1.64-.656-1.966-.984-.328-.327v-.984zm8.368-14.026 1.434.795 1.701 1.394 1.134.929.669 1.496-.094 2.196-.362 1.599-.166.433-.598.268-.866-.331-2-1.259-1.134-.93-.804-1.795-.071-1.763.095-2.197.165-.433.897-.402zm15.581.328-1.433.795-1.701 1.394-1.134.929-.669 1.495.094 2.198.362 1.598.165.433.599.268.866-.331 2-1.259 1.134-.929.803-1.796.071-1.764-.094-2.196-.166-.433-.897-.402zm9.485 13.698-1.311-.983-1.967-.983-1.311-.656h-1.639l-1.967.984-1.311.983-.328.328v.655l.656.656 1.967 1.311 1.311.656h1.967l1.638-.656 1.967-.984.328-.327v-.984zm-24.738 14.423 1.433-.795 1.701-1.394 1.134-.929.67-1.496-.095-2.196-.362-1.599-.165-.433-.598-.268-.867.331-2 1.26-1.134.929-.803 1.795-.071 1.763.094 2.197.166.434.897.401zm15.581 0-1.433-.795-1.702-1.394-1.133-.929-.67-1.496.095-2.196.361-1.599.166-.433.599-.268.866.331 2 1.26 1.134.929.803 1.795.071 1.763-.094 2.197-.166.434-.897.401zM904.407 207.612h1.178l.718.239c.414-.17.919-.132 1.318.127l1.784 1.156 8.752 4.376.904.314.861-.86.573-1.148v-10.898l-1.147-1.721-1.721-1.147-5.162-2.868-5.162-2.868-2.868-3.441v-3.441l.574-1.148h1.72l2.295 1.148 4.015 2.294 2.294 1.721 2.868 1.147h1.147l1.147-1.721v-2.294l-1.147-2.868-2.294-1.721-2.868-1.721-3.442-1.147-3.441-2.294-2.294-1.721-.574-2.294v-2.868l.574-1.721h1.72l2.295 1.147 3.441 1.721 2.294 1.147 1.721 1.148 2.294 1.146 1.148-.573.573-2.868V156.753l.574-1.148 1.147-.573.573-.574h.574l.364.122.58-.193h.573l.574.573 1.147.574.573 1.147v14.339l.574 2.868 1.147.574 2.294-1.147 1.721-1.148 2.295-1.147 3.441-1.721 2.294-1.147h1.721l.574 1.721v2.868l-.574 2.294-2.294 1.721-3.442 2.295-3.441 1.147-2.868 1.72-2.294 1.721-1.148 2.868v2.294l1.148 1.721h1.147l2.868-1.147 2.294-1.721 4.015-2.294 2.294-1.147h1.721l.574 1.147v3.441l-2.868 3.442-5.162 2.868-5.163 2.868-1.72 1.147-1.148 1.72v10.899l.574 1.147.86.86.905-.314-1.669 1.002 9.647-5.162 3.089-1.477 2.618-.189c.767-.055 1.397.63 1.397 1.398v13.135l1.587.768 1.183.285 1.278-.109 9.296-5.688.869-1.877.08-2.066-.248-5.901-.248-5.9 1.439-4.242 2.936-1.796 1.277-.11.898 1.468.219 2.555.139 4.623-.271 2.855.519 3.045.599.978 2.066.081 1.957-1.198 1.847-2.475.271-2.855-.029-3.345-.818-3.534.161-4.133.27-2.855 1.658-1.687 2.446-1.496 1.767-.409.899 1.467.219 2.556.328 3.834.219 2.556-.081 2.066.22 2.556 1.087.679 2.746-1.007 1.957-1.198 2.446-1.497 2.936-1.796 2.935-1.796 1.957-1.198 1.278-.109 1.088.679.789.19.3.489.086.374.467.393.299.49-.189.788.109 1.278-.679 1.088-1.957 1.198-2.936 1.796-2.935 1.796-2.447 1.497-1.956 1.197-2.148 1.987.11 1.277 2.176 1.359 1.876.869 2.177 1.358 3.263 2.038 2.176 1.358.899 1.468-1.169 1.387-2.446 1.497-2.256.708-2.666-1.059-3.753-1.738-2.775-2.337-2.964-1.548-2.666-1.059-3.045.518-1.957 1.198-.869 1.876.599.979 2.475 1.848 2.666 1.058 4.052 2.227 2.176 1.359.898 1.468-.679 1.088-2.935 1.796-4.433-.65-5.14-2.907-5.141-2.906-1.877-.869-2.066-.08-9.296 5.687-.679 1.088-.285 1.183.739.608-2.745-1.434 13.697 8.671c.65.411.784 1.317.343 1.946l-.676.965-1.944 1.449-9.994 5.411-.815 1.549.369 1.159.756 1.036 9.682 5.003 2.055-.229 1.809-1.002 4.918-3.269 4.918-3.27 4.374-.967 3.057 1.58.756 1.036-.79 1.529-2.072 1.511-3.882 2.514-2.582 1.248-2.336 2.021-.527 1.019 1.003 1.809 2.038 1.054 3.074.297 2.582-1.248 2.846-1.758 2.599-2.531 3.618-2.003 2.582-1.249 2.301.544 2.548 1.317 1.266 1.299-.79 1.529-2.073 1.511-3.108 2.268-2.073 1.511-1.809 1.002-2.073 1.512-.017 1.282 2.285 1.827 2.038 1.053 2.548 1.317 3.057 1.58 3.057 1.579 2.039 1.054.756 1.036-.017 1.283.246.772-.263.51-.276.268-.094.603-.263.51-.773.246-1.036.756-1.283-.017-2.038-1.054-3.057-1.58-3.058-1.58-2.547-1.316-2.039-1.054-2.811-.807-1.036.756-.034 2.565.229 2.055-.034 2.565-.052 3.848-.034 2.565-.79 1.528-1.792-.28-2.548-1.317-1.775-1.563-.475-2.828-.458-4.111.56-3.584-.211-3.338-.476-2.828-2.021-2.336-2.038-1.053-2.056.229-.526 1.019-.297 3.075.475 2.828.195 4.62-.035 2.565-.79 1.529-1.282-.017-3.057-1.58-1.741-4.128-.178-5.903-.178-5.903-.229-2.055-1.002-1.809-9.681-5.003-1.283-.017-1.159.369-.055.378v13.86a1.4 1.4 0 0 1-1.397 1.397h-1.178l-2.302-.762-.769-.384a1.452 1.452 0 0 1-.747-.257l-.581-.408-8.332-4.166-.127-.042-.891.86-.593 1.147v10.899l1.187 1.72 1.781 1.147 5.342 2.868 5.342 2.868 2.967 3.442v3.441l-.593 1.147h-1.781l-2.374-1.147-4.155-2.294-2.374-1.721-2.968-1.147h-1.187l-1.187 1.721v2.294l1.187 2.868 2.374 1.721 2.968 1.72 3.561 1.147 3.562 2.295 2.374 1.721.593 2.294v2.868l-.593 1.721h-1.781l-2.374-1.148-3.561-1.72-2.375-1.147-1.78-1.148-2.374-1.147-1.188.574-.593 2.868v14.339l-.594 1.147-1.187.574-.593.573h-.594l-.6-.193-.376.122h-.594l-.593-.574-1.187-.574-.594-1.147v-14.339l-.593-2.868-1.188-.573-2.374 1.146-1.78 1.148-2.375 1.147-3.561 1.721-2.374 1.147h-1.781l-.593-1.721v-2.868l.593-2.294 2.374-1.721 3.562-2.294 3.561-1.148 2.968-1.72 2.374-1.721 1.187-2.868v-2.294l-1.187-1.721h-1.187l-2.968 1.147-2.374 1.721-4.155 2.294-2.374 1.147h-1.781l-.593-1.147v-3.441l2.967-3.442 5.342-2.867 5.342-2.868 1.781-1.147 1.187-1.721v-10.899l-.593-1.147-.891-.86-.936.314 2.231-1.294h-.361l-10.103 5.406-3.089 1.477-2.618.188c-.766.055-1.397-.629-1.397-1.397v-15.253l-.376-.089-1.278.117-9.263 5.741-.859 1.881-.068 2.067.282 5.899.281 5.898-1.414 4.251-2.925 1.813-1.278.117-.906-1.463-.233-2.554-.166-4.622.255-2.856-.536-3.042-.605-.976-2.067-.068-1.949 1.209-1.834 2.486-.254 2.856.048 3.344.838 3.53-.137 4.134-.254 2.857-1.648 1.695-2.438 1.511-1.765.419-.906-1.462-.234-2.555-.35-3.831-.234-2.555.069-2.067-.233-2.554-1.092-.673-2.74 1.023-1.95 1.209-2.438 1.51-2.925 1.813-2.925 1.813-1.951 1.209-1.277.116-1.092-.672-.79-.186-.302-.487-.088-.374-.47-.39-.302-.488.186-.79-.117-1.277.673-1.092 1.95-1.209 2.925-1.812 2.926-1.813 2.437-1.511 1.95-1.209 2.136-1.998-.117-1.277-2.183-1.346-1.882-.859-2.184-1.345-3.275-2.019-2.184-1.346-.907-1.463 1.161-1.394 2.438-1.51 2.252-.721 2.671 1.043 3.763 1.717 2.788 2.321 2.974 1.531 2.671 1.044 3.042-.536 1.95-1.208.859-1.882-.605-.975-2.486-1.833-2.671-1.044-4.065-2.205-2.184-1.345-.906-1.463.672-1.092 2.926-1.813 4.436.625 5.157 2.877 5.157 2.877 1.882.859 2.067.068 9.263-5.741.673-1.091.132-.566-.161-.168-14.276-7.369c-.683-.352-.831-1.287-.413-1.932l.641-.989 1.891-1.517 9.929-5.846-.797-.127.728-.622-.308-1.177-.699-1.075-9.403-5.51-2.065.12-1.859.904-5.085 3.004-5.084 3.004-4.419.734-2.969-1.74-.7-1.075.87-1.484 2.15-1.399 4.009-2.305 2.645-1.11 2.44-1.894.579-.989-.904-1.86-1.979-1.16-3.055-.46-2.645 1.109-2.934 1.604-2.73 2.39-3.719 1.809-2.645 1.11-2.269-.666-2.475-1.449-1.194-1.366.87-1.484 2.149-1.399 3.225-2.1 2.15-1.399 1.86-.905 2.149-1.399.085-1.28-2.184-1.945-1.98-1.16-2.474-1.45-2.969-1.74-2.969-1.74-1.98-1.16-.7-1.075.085-1.279-.204-.785.29-.495.289-.253.126-.597.29-.495.785-.205 1.075-.7 1.279.085 1.98 1.16 2.969 1.74 2.969 1.74 2.475 1.45 1.979 1.16 2.764.955 1.075-.7.171-2.559-.12-2.065.17-2.559.255-3.839.17-2.56.87-1.484 1.775.375 2.474 1.45 1.69 1.654.324 2.85.24 4.129-.75 3.549.035 3.345.324 2.849 1.895 2.44 1.979 1.16 2.065-.12.579-.989.461-3.055-.325-2.849.05-4.625.171-2.559.87-1.484 1.28.085 2.969 1.74 1.519 4.214-.135 5.904-.136 5.904.12 2.064.904 1.86 9.403 5.51 1.28.085 1.177-.308 1.259-1.194V209.01c0-.769.629-1.398 1.398-1.398zm21.169 59.65h-.539l.27.043.269-.043zm-30.318-27.34 2.294-1.721 3.442-1.721 2.294-1.147h2.868l3.441 1.721 2.295 1.72.573.574v1.147l-1.147 1.148-3.441 2.294-2.295 1.147h-3.441l-2.868-1.147-3.442-1.721-.573-.573v-1.721zm14.644-24.545 2.507 1.392 2.977 2.438 1.984 1.626 1.171 2.617-.165 3.845-.633 2.797-.29.757-1.047.469-1.515-.578-3.5-2.205-1.985-1.625-1.405-3.142-.124-3.086.165-3.844.289-.758 1.571-.703zm27.263.573-2.507 1.392-2.977 2.439-1.984 1.625-1.171 2.618.165 3.844.633 2.797.289.758 1.048.469 1.515-.579 3.5-2.204 1.984-1.626 1.406-3.141.124-3.086-.165-3.845-.289-.758-1.571-.703zm16.598 23.972-2.295-1.721-3.441-1.721-2.294-1.147h-2.868l-3.442 1.721-2.294 1.72-.573.574v1.147l1.146 1.148 3.442 2.294 2.294 1.147h3.442l2.868-1.147 3.441-1.721.574-.573v-1.721zm-43.288 25.237 2.508-1.391 2.976-2.439 1.985-1.626 1.171-2.617-.165-3.844-.633-2.797-.29-.758-1.047-.469-1.516.579-3.5 2.204-1.984 1.626-1.405 3.141-.125 3.086.165 3.844.29.758 1.57.703zm27.264 0-2.508-1.391-2.977-2.439-1.984-1.626-1.171-2.617.165-3.844.634-2.797.289-.758 1.047-.469 1.516.579 3.499 2.204 1.985 1.626 1.406 3.141.124 3.086-.165 3.844-.29.758-1.57.703zM420.692 94.204h.713l.435.144a.88.88 0 0 1 .798.077l1.079.7 5.296 2.648.548.19.52-.521.347-.694v-6.595l-.694-1.041-1.041-.694-3.124-1.736-3.124-1.736-1.736-2.082v-2.083l.347-.694h1.042l1.388.694 2.43 1.389 1.388 1.041 1.736.694h.694l.694-1.041v-1.389l-.694-1.735-1.388-1.042-1.736-1.041-2.083-.694-2.082-1.389-1.389-1.041-.347-1.388v-1.736l.347-1.041h1.042l1.388.694 2.083 1.041 1.388.694 1.042.695 1.388.694.694-.347.347-1.736v-8.677l.347-.695.695-.347.347-.347h.347l.22.073.351-.116h.347l.347.347.694.347.347.694v8.678l.348 1.736.694.347 1.388-.695 1.041-.694 1.389-.694 2.083-1.042 1.388-.694h1.041l.347 1.042v1.735l-.347 1.389-1.388 1.041-2.083 1.388-2.082.695-1.736 1.041-1.388 1.041-.695 1.736v1.388l.695 1.042h.694l1.735-.695 1.389-1.041 2.43-1.388 1.388-.694h1.041l.347.694v2.082l-1.735 2.083-3.124 1.735-3.124 1.736-1.041.694-.695 1.042v6.595l.348.694.52.521.547-.19-1.009.606 5.838-3.124 1.869-.894 1.584-.114c.464-.033.846.381.846.846v7.949l.96.464.716.173.773-.066 5.626-3.442.526-1.136.048-1.251-.15-3.57-.15-3.571.871-2.567 1.776-1.087.774-.066.543.888.133 1.546.083 2.798-.163 1.728.313 1.842.363.592 1.251.049 1.184-.724 1.118-1.499.164-1.727-.018-2.024-.495-2.139.097-2.501.164-1.728 1.003-1.021 1.481-.906 1.069-.247.544.888.132 1.547.199 2.32.132 1.546-.048 1.251.132 1.547.658.411 1.662-.61 1.184-.725 1.481-.906 1.776-1.086 1.777-1.088 1.184-.724.774-.066.658.41.477.115.181.297.053.226.282.238.181.296-.115.477.067.774-.411.658-1.184.725-1.777 1.087-1.777 1.087-1.48.906-1.184.724-1.299 1.202.066.773 1.316.822 1.136.526 1.317.822 1.976 1.233 1.316.822.544.889-.707.839-1.481.906-1.365.429-1.613-.641-2.272-1.052-1.679-1.415-1.794-.936-1.613-.641-1.843.314-1.184.724-.526 1.136.363.592 1.498 1.118 1.613.641 2.452 1.348 1.317.822.543.888-.411.659-1.776 1.087-2.682-.394-3.111-1.759-3.111-1.759-1.136-.526-1.25-.048-5.626 3.442-.411.658-.172.716.447.368-1.662-.868 8.29 5.248c.393.248.474.797.207 1.177l-.409.584-1.176.877-6.048 3.275-.494.937.224.701.457.628 5.859 3.027 1.244-.138 1.095-.607 2.976-1.978 2.976-1.979 2.647-.586 1.85.957.457.627-.478.925-1.254.915-2.349 1.52-1.562.756-1.414 1.223-.318.617.606 1.095 1.233.637 1.861.18 1.563-.755 1.722-1.064 1.572-1.531 2.19-1.213 1.562-.756 1.393.33 1.542.796.766.787-.478.925-1.254.915-1.882 1.372-1.254.914-1.095.607-1.254.915-.01.776 1.382 1.105 1.234.637 1.542.797 1.85.956 1.85.956 1.234.638.457.627-.01.776.149.468-.16.308-.166.162-.057.365-.159.309-.468.148-.627.458-.777-.01-1.233-.638-1.85-.956-1.85-.956-1.542-.797-1.234-.637-1.701-.489-.627.458-.021 1.552.139 1.244-.021 1.552-.031 2.328-.021 1.552-.478.926-1.084-.17-1.542-.797-1.074-.946-.288-1.712-.277-2.487.339-2.169-.128-2.02-.288-1.711-1.223-1.414-1.233-.637-1.244.138-.319.617-.18 1.861.288 1.711.118 2.796-.021 1.552-.478.926-.776-.011-1.85-.956-1.053-2.498-.108-3.572-.108-3.572-.139-1.244-.606-1.095-5.859-3.028-.776-.01-.702.223-.033.229v8.388c0 .465-.38.845-.845.845h-.713l-1.393-.461-.465-.233a.87.87 0 0 1-.452-.155l-.352-.247-5.042-2.521-.077-.025-.539.52-.359.694v6.595l.718 1.042 1.078.694 3.233 1.736 3.232 1.735 1.796 2.083v2.082l-.359.695h-1.078l-1.436-.695-2.515-1.388-1.436-1.041-1.797-.694h-.718l-.718 1.041v1.388l.718 1.736 1.437 1.041 1.796 1.042 2.155.694 2.155 1.388 1.437 1.041.359 1.389v1.736l-.359 1.041h-1.078l-1.436-.695-2.155-1.041-1.437-.694-1.078-.694-1.437-.694-.718.347-.359 1.735v8.678l-.36.694-.718.347-.359.348h-.36l-.362-.118-.228.074h-.359l-.36-.347-.718-.347-.359-.694v-8.678l-.359-1.736-.719-.347-1.436.695-1.078.693-1.437.695-2.155 1.041-1.437.694h-1.078l-.359-1.041v-1.735l.359-1.389 1.437-1.041 2.155-1.389 2.156-.694 1.796-1.041 1.437-1.042.718-1.735v-1.389l-.718-1.041h-.719l-1.796.694-1.437 1.042-2.514 1.388-1.437.694h-1.078l-.359-.694v-2.083l1.796-2.082 3.233-1.736 3.233-1.736 1.078-.693.718-1.042v-6.595l-.359-.694-.539-.521-.566.19 1.35-.783h-.219l-6.114 3.271-1.869.894-1.584.114c-.465.034-.846-.381-.846-.845v-9.231l-.228-.054-.773.071-5.605 3.474-.52 1.139-.041 1.251.17 3.57.17 3.569-.856 2.572-1.77 1.097-.773.071-.548-.885-.142-1.546-.099-2.797.153-1.728-.324-1.841-.366-.59-1.251-.042-1.18.732-1.109 1.504-.154 1.729.029 2.023.507 2.136-.083 2.502-.153 1.729-.998 1.026-1.475.914-1.068.254-.548-.885-.142-1.546-.212-2.319-.141-1.546.041-1.25-.141-1.546-.661-.408-1.658.62-1.18.731-1.475.914-1.771 1.097-1.77 1.098-1.18.731-.773.071-.66-.408-.479-.112-.182-.295-.054-.226-.284-.236-.183-.295.112-.478-.07-.773.407-.661 1.18-.731 1.77-1.098 1.771-1.096 1.475-.915 1.18-.731 1.292-1.209-.071-.773-1.321-.815-1.139-.52-1.321-.814-1.982-1.222-1.322-.814-.548-.885.702-.844 1.475-.914 1.363-.436 1.617.631 2.277 1.039 1.687 1.405 1.799.926 1.617.632 1.841-.324 1.18-.732.52-1.138-.366-.59-1.504-1.11-1.617-.632-2.46-1.333-1.321-.815-.549-.885.407-.661 1.771-1.097 2.684.378 3.121 1.741 3.121 1.742 1.138.519 1.251.041 5.606-3.474.407-.661.08-.341-.097-.102-8.64-4.46c-.413-.213-.502-.779-.249-1.169l.387-.599 1.145-.918 6.008-3.538-.482-.077.441-.376-.187-.712-.423-.651-5.69-3.334-1.249.072-1.126.548-3.076 1.818-3.077 1.817-2.675.445-1.797-1.053-.423-.651.527-.898 1.301-.847 2.426-1.394 1.6-.672 1.477-1.146.351-.599-.548-1.125-1.198-.703-1.848-.278-1.601.671-1.775.971-1.652 1.446-2.251 1.095-1.601.672-1.373-.403-1.498-.878-.723-.825.527-.899 1.301-.847 1.951-1.27 1.301-.847 1.126-.548 1.301-.846.051-.775-1.322-1.177-1.197-.702-1.498-.877-1.797-1.054-1.797-1.052-1.198-.702-.423-.651.051-.774-.124-.475.176-.3.175-.153.076-.361.176-.3.475-.124.65-.423.775.051 1.197.703 1.797 1.053 1.797 1.052 1.497.878 1.198.702 1.673.578.651-.424.103-1.549-.073-1.249.103-1.549.155-2.323.103-1.549.526-.899 1.074.228 1.498.877 1.022 1.001.197 1.725.145 2.499-.455 2.148.022 2.023.196 1.725 1.146 1.476 1.198.702 1.25-.072.351-.599.278-1.849-.196-1.724.03-2.799.103-1.548.527-.899.774.052 1.797 1.053.919 2.55-.082 3.573-.082 3.573.073 1.249.547 1.126 5.69 3.334.775.051.713-.186.762-.723V95.05c0-.465.38-.846.845-.846zm12.811 36.098h-.326l.163.026.163-.026zm-18.348-16.545 1.389-1.042 2.083-1.041 1.388-.694h1.736l2.082 1.041 1.389 1.041.347.347v.695l-.694.694-2.083 1.388-1.389.695h-2.082l-1.736-.695-2.082-1.041-.348-.347v-1.041zm8.863-14.854 1.517.842 1.801 1.476 1.201.983.709 1.585-.1 2.326-.383 1.693-.175.458-.634.284-.917-.35-2.118-1.334-1.201-.984-.851-1.901-.075-1.868.1-2.326.175-.459.951-.425zm16.498.347-1.517.842-1.801 1.476-1.201.984-.709 1.584.1 2.326.383 1.693.175.458.634.284.917-.35 2.118-1.334 1.201-.984.851-1.901.075-1.867-.1-2.327-.175-.458-.951-.426zm10.045 14.507-1.389-1.042-2.082-1.041-1.389-.694h-1.735l-2.083 1.041-1.389 1.041-.346.347v.695l.693.694 2.083 1.388 1.389.695h2.082l1.736-.695 2.083-1.041.347-.347v-1.041zm-26.196 15.272 1.517-.842 1.801-1.475 1.201-.984.709-1.584-.1-2.327-.383-1.692-.175-.459-.634-.284-.917.35-2.118 1.335-1.201.983-.851 1.901-.075 1.868.1 2.327.175.458.951.425zm16.499 0-1.518-.842-1.801-1.475-1.201-.984-.709-1.584.1-2.327.383-1.692.176-.459.633-.284.917.35 2.118 1.335 1.201.983.851 1.901.075 1.868-.1 2.327-.175.458-.95.425z"/></g></g></svg>